<mxfile host="app.diagrams.net" modified="2024-05-22T12:38:50.979Z" agent="Mozilla/5.0 (Windows NT 10.0; Win64; x64) AppleWebKit/537.36 (KHTML, like Gecko) Chrome/121.0.0.0 Safari/537.36" etag="ObZ6p15bUDPwnpP3wmry" version="24.4.4" type="device">
  <diagram name="Página-1" id="dSrASsddD7LI_oRh3I_Z">
    <mxGraphModel dx="1687" dy="908" grid="1" gridSize="10" guides="1" tooltips="1" connect="1" arrows="1" fold="1" page="1" pageScale="1" pageWidth="827" pageHeight="1169" math="0" shadow="0">
      <root>
        <mxCell id="0" />
        <mxCell id="1" parent="0" />
        <mxCell id="UyxZlDRQQXkK28OBq-pB-10" style="edgeStyle=orthogonalEdgeStyle;rounded=0;orthogonalLoop=1;jettySize=auto;html=1;exitX=0.5;exitY=1;exitDx=0;exitDy=0;" edge="1" parent="1" source="UyxZlDRQQXkK28OBq-pB-1" target="UyxZlDRQQXkK28OBq-pB-2">
          <mxGeometry relative="1" as="geometry" />
        </mxCell>
        <mxCell id="UyxZlDRQQXkK28OBq-pB-1" value="INÍCIO&amp;nbsp;" style="ellipse;whiteSpace=wrap;html=1;fillColor=#e1d5e7;strokeColor=#9673a6;" vertex="1" parent="1">
          <mxGeometry x="160" y="120" width="120" height="80" as="geometry" />
        </mxCell>
        <mxCell id="UyxZlDRQQXkK28OBq-pB-11" style="edgeStyle=orthogonalEdgeStyle;rounded=0;orthogonalLoop=1;jettySize=auto;html=1;exitX=0.5;exitY=1;exitDx=0;exitDy=0;entryX=0.5;entryY=0;entryDx=0;entryDy=0;" edge="1" parent="1" source="UyxZlDRQQXkK28OBq-pB-2" target="UyxZlDRQQXkK28OBq-pB-3">
          <mxGeometry relative="1" as="geometry" />
        </mxCell>
        <mxCell id="UyxZlDRQQXkK28OBq-pB-2" value="DENTRO DA TELA PRODUTO, CLICAR EM REMOVER" style="rounded=0;whiteSpace=wrap;html=1;fillColor=#ffe6cc;strokeColor=#d79b00;" vertex="1" parent="1">
          <mxGeometry x="160" y="240" width="120" height="60" as="geometry" />
        </mxCell>
        <mxCell id="UyxZlDRQQXkK28OBq-pB-12" style="edgeStyle=orthogonalEdgeStyle;rounded=0;orthogonalLoop=1;jettySize=auto;html=1;exitX=0.5;exitY=1;exitDx=0;exitDy=0;entryX=0.5;entryY=0;entryDx=0;entryDy=0;" edge="1" parent="1" source="UyxZlDRQQXkK28OBq-pB-3" target="UyxZlDRQQXkK28OBq-pB-4">
          <mxGeometry relative="1" as="geometry" />
        </mxCell>
        <mxCell id="UyxZlDRQQXkK28OBq-pB-3" value="APARECER NA TELA ESPAÇO PARA DIGITAR O MOTIVO&amp;nbsp;" style="rounded=0;whiteSpace=wrap;html=1;fillColor=#ffe6cc;strokeColor=#d79b00;" vertex="1" parent="1">
          <mxGeometry x="160" y="340" width="120" height="60" as="geometry" />
        </mxCell>
        <mxCell id="UyxZlDRQQXkK28OBq-pB-4" value="DIGITAR O MOTIVO&amp;nbsp;" style="rounded=0;whiteSpace=wrap;html=1;fillColor=#ffe6cc;strokeColor=#d79b00;" vertex="1" parent="1">
          <mxGeometry x="160" y="430" width="120" height="60" as="geometry" />
        </mxCell>
        <mxCell id="UyxZlDRQQXkK28OBq-pB-16" style="edgeStyle=orthogonalEdgeStyle;rounded=0;orthogonalLoop=1;jettySize=auto;html=1;exitX=0.5;exitY=1;exitDx=0;exitDy=0;" edge="1" parent="1" source="UyxZlDRQQXkK28OBq-pB-5" target="UyxZlDRQQXkK28OBq-pB-9">
          <mxGeometry relative="1" as="geometry" />
        </mxCell>
        <mxCell id="UyxZlDRQQXkK28OBq-pB-5" value="REMOVER" style="rounded=0;whiteSpace=wrap;html=1;fillColor=#ffe6cc;strokeColor=#d79b00;" vertex="1" parent="1">
          <mxGeometry x="160" y="660" width="120" height="60" as="geometry" />
        </mxCell>
        <mxCell id="UyxZlDRQQXkK28OBq-pB-14" style="edgeStyle=orthogonalEdgeStyle;rounded=0;orthogonalLoop=1;jettySize=auto;html=1;exitX=0.5;exitY=1;exitDx=0;exitDy=0;exitPerimeter=0;entryX=0.5;entryY=0;entryDx=0;entryDy=0;" edge="1" parent="1" source="UyxZlDRQQXkK28OBq-pB-7" target="UyxZlDRQQXkK28OBq-pB-5">
          <mxGeometry relative="1" as="geometry" />
        </mxCell>
        <mxCell id="UyxZlDRQQXkK28OBq-pB-19" value="SIM" style="edgeLabel;html=1;align=center;verticalAlign=middle;resizable=0;points=[];" vertex="1" connectable="0" parent="UyxZlDRQQXkK28OBq-pB-14">
          <mxGeometry x="-0.0176" y="-1" relative="1" as="geometry">
            <mxPoint as="offset" />
          </mxGeometry>
        </mxCell>
        <mxCell id="UyxZlDRQQXkK28OBq-pB-15" style="edgeStyle=orthogonalEdgeStyle;rounded=0;orthogonalLoop=1;jettySize=auto;html=1;exitX=1;exitY=0.5;exitDx=0;exitDy=0;exitPerimeter=0;entryX=1;entryY=0.5;entryDx=0;entryDy=0;" edge="1" parent="1" source="UyxZlDRQQXkK28OBq-pB-7" target="UyxZlDRQQXkK28OBq-pB-4">
          <mxGeometry relative="1" as="geometry" />
        </mxCell>
        <mxCell id="UyxZlDRQQXkK28OBq-pB-17" value="NÃO" style="edgeLabel;html=1;align=center;verticalAlign=middle;resizable=0;points=[];" vertex="1" connectable="0" parent="UyxZlDRQQXkK28OBq-pB-15">
          <mxGeometry x="-0.3382" y="-2" relative="1" as="geometry">
            <mxPoint as="offset" />
          </mxGeometry>
        </mxCell>
        <mxCell id="UyxZlDRQQXkK28OBq-pB-7" value="ESPAÇO PREENCHIDO" style="strokeWidth=2;html=1;shape=mxgraph.flowchart.decision;whiteSpace=wrap;fillColor=#d5e8d4;strokeColor=#82b366;" vertex="1" parent="1">
          <mxGeometry x="140" y="520" width="160" height="100" as="geometry" />
        </mxCell>
        <mxCell id="UyxZlDRQQXkK28OBq-pB-9" value="FIM" style="ellipse;whiteSpace=wrap;html=1;fillColor=#e1d5e7;strokeColor=#9673a6;" vertex="1" parent="1">
          <mxGeometry x="160" y="750" width="120" height="80" as="geometry" />
        </mxCell>
        <mxCell id="UyxZlDRQQXkK28OBq-pB-13" style="edgeStyle=orthogonalEdgeStyle;rounded=0;orthogonalLoop=1;jettySize=auto;html=1;exitX=0.5;exitY=1;exitDx=0;exitDy=0;entryX=0.5;entryY=0;entryDx=0;entryDy=0;entryPerimeter=0;" edge="1" parent="1" source="UyxZlDRQQXkK28OBq-pB-4" target="UyxZlDRQQXkK28OBq-pB-7">
          <mxGeometry relative="1" as="geometry" />
        </mxCell>
        <mxCell id="UyxZlDRQQXkK28OBq-pB-21" value="APAGAR PRODUTO" style="text;strokeColor=none;fillColor=none;html=1;fontSize=24;fontStyle=1;verticalAlign=middle;align=center;fontFamily=Times New Roman;" vertex="1" parent="1">
          <mxGeometry x="200" y="40" width="40" height="50" as="geometry" />
        </mxCell>
        <mxCell id="UyxZlDRQQXkK28OBq-pB-23" style="edgeStyle=orthogonalEdgeStyle;rounded=0;orthogonalLoop=1;jettySize=auto;html=1;exitX=0.5;exitY=1;exitDx=0;exitDy=0;" edge="1" parent="1" source="UyxZlDRQQXkK28OBq-pB-24" target="UyxZlDRQQXkK28OBq-pB-26">
          <mxGeometry relative="1" as="geometry" />
        </mxCell>
        <mxCell id="UyxZlDRQQXkK28OBq-pB-24" value="INÍCIO&amp;nbsp;" style="ellipse;whiteSpace=wrap;html=1;fillColor=#e1d5e7;strokeColor=#9673a6;" vertex="1" parent="1">
          <mxGeometry x="520" y="120" width="120" height="80" as="geometry" />
        </mxCell>
        <mxCell id="UyxZlDRQQXkK28OBq-pB-25" style="edgeStyle=orthogonalEdgeStyle;rounded=0;orthogonalLoop=1;jettySize=auto;html=1;exitX=0.5;exitY=1;exitDx=0;exitDy=0;entryX=0.5;entryY=0;entryDx=0;entryDy=0;" edge="1" parent="1" source="UyxZlDRQQXkK28OBq-pB-26" target="UyxZlDRQQXkK28OBq-pB-28">
          <mxGeometry relative="1" as="geometry" />
        </mxCell>
        <mxCell id="UyxZlDRQQXkK28OBq-pB-26" value="DENTRO DA TELA CLIENTE, CLICAR EM REMOVER" style="rounded=0;whiteSpace=wrap;html=1;fillColor=#ffe6cc;strokeColor=#d79b00;" vertex="1" parent="1">
          <mxGeometry x="520" y="240" width="120" height="60" as="geometry" />
        </mxCell>
        <mxCell id="UyxZlDRQQXkK28OBq-pB-27" style="edgeStyle=orthogonalEdgeStyle;rounded=0;orthogonalLoop=1;jettySize=auto;html=1;exitX=0.5;exitY=1;exitDx=0;exitDy=0;entryX=0.5;entryY=0;entryDx=0;entryDy=0;" edge="1" parent="1" source="UyxZlDRQQXkK28OBq-pB-28" target="UyxZlDRQQXkK28OBq-pB-29">
          <mxGeometry relative="1" as="geometry" />
        </mxCell>
        <mxCell id="UyxZlDRQQXkK28OBq-pB-28" value="APARECER NA TELA ESPAÇO PARA DIGITAR O MOTIVO&amp;nbsp;" style="rounded=0;whiteSpace=wrap;html=1;fillColor=#ffe6cc;strokeColor=#d79b00;" vertex="1" parent="1">
          <mxGeometry x="520" y="340" width="120" height="60" as="geometry" />
        </mxCell>
        <mxCell id="UyxZlDRQQXkK28OBq-pB-29" value="DIGITAR O MOTIVO&amp;nbsp;" style="rounded=0;whiteSpace=wrap;html=1;fillColor=#ffe6cc;strokeColor=#d79b00;" vertex="1" parent="1">
          <mxGeometry x="520" y="430" width="120" height="60" as="geometry" />
        </mxCell>
        <mxCell id="UyxZlDRQQXkK28OBq-pB-30" style="edgeStyle=orthogonalEdgeStyle;rounded=0;orthogonalLoop=1;jettySize=auto;html=1;exitX=0.5;exitY=1;exitDx=0;exitDy=0;" edge="1" parent="1" source="UyxZlDRQQXkK28OBq-pB-31" target="UyxZlDRQQXkK28OBq-pB-37">
          <mxGeometry relative="1" as="geometry" />
        </mxCell>
        <mxCell id="UyxZlDRQQXkK28OBq-pB-31" value="REMOVER" style="rounded=0;whiteSpace=wrap;html=1;fillColor=#ffe6cc;strokeColor=#d79b00;" vertex="1" parent="1">
          <mxGeometry x="520" y="660" width="120" height="60" as="geometry" />
        </mxCell>
        <mxCell id="UyxZlDRQQXkK28OBq-pB-32" style="edgeStyle=orthogonalEdgeStyle;rounded=0;orthogonalLoop=1;jettySize=auto;html=1;exitX=0.5;exitY=1;exitDx=0;exitDy=0;exitPerimeter=0;entryX=0.5;entryY=0;entryDx=0;entryDy=0;" edge="1" parent="1" source="UyxZlDRQQXkK28OBq-pB-36" target="UyxZlDRQQXkK28OBq-pB-31">
          <mxGeometry relative="1" as="geometry" />
        </mxCell>
        <mxCell id="UyxZlDRQQXkK28OBq-pB-33" value="SIM" style="edgeLabel;html=1;align=center;verticalAlign=middle;resizable=0;points=[];" vertex="1" connectable="0" parent="UyxZlDRQQXkK28OBq-pB-32">
          <mxGeometry x="-0.0176" y="-1" relative="1" as="geometry">
            <mxPoint as="offset" />
          </mxGeometry>
        </mxCell>
        <mxCell id="UyxZlDRQQXkK28OBq-pB-34" style="edgeStyle=orthogonalEdgeStyle;rounded=0;orthogonalLoop=1;jettySize=auto;html=1;exitX=1;exitY=0.5;exitDx=0;exitDy=0;exitPerimeter=0;entryX=1;entryY=0.5;entryDx=0;entryDy=0;" edge="1" parent="1" source="UyxZlDRQQXkK28OBq-pB-36" target="UyxZlDRQQXkK28OBq-pB-29">
          <mxGeometry relative="1" as="geometry" />
        </mxCell>
        <mxCell id="UyxZlDRQQXkK28OBq-pB-35" value="NÃO" style="edgeLabel;html=1;align=center;verticalAlign=middle;resizable=0;points=[];" vertex="1" connectable="0" parent="UyxZlDRQQXkK28OBq-pB-34">
          <mxGeometry x="-0.3382" y="-2" relative="1" as="geometry">
            <mxPoint as="offset" />
          </mxGeometry>
        </mxCell>
        <mxCell id="UyxZlDRQQXkK28OBq-pB-36" value="ESPAÇO PREENCHIDO" style="strokeWidth=2;html=1;shape=mxgraph.flowchart.decision;whiteSpace=wrap;fillColor=#d5e8d4;strokeColor=#82b366;" vertex="1" parent="1">
          <mxGeometry x="500" y="520" width="160" height="100" as="geometry" />
        </mxCell>
        <mxCell id="UyxZlDRQQXkK28OBq-pB-37" value="FIM" style="ellipse;whiteSpace=wrap;html=1;fillColor=#e1d5e7;strokeColor=#9673a6;" vertex="1" parent="1">
          <mxGeometry x="520" y="750" width="120" height="80" as="geometry" />
        </mxCell>
        <mxCell id="UyxZlDRQQXkK28OBq-pB-38" style="edgeStyle=orthogonalEdgeStyle;rounded=0;orthogonalLoop=1;jettySize=auto;html=1;exitX=0.5;exitY=1;exitDx=0;exitDy=0;entryX=0.5;entryY=0;entryDx=0;entryDy=0;entryPerimeter=0;" edge="1" parent="1" source="UyxZlDRQQXkK28OBq-pB-29" target="UyxZlDRQQXkK28OBq-pB-36">
          <mxGeometry relative="1" as="geometry" />
        </mxCell>
        <mxCell id="UyxZlDRQQXkK28OBq-pB-39" value="APAGAR CLIENTE" style="text;strokeColor=none;fillColor=none;html=1;fontSize=24;fontStyle=1;verticalAlign=middle;align=center;fontFamily=Times New Roman;" vertex="1" parent="1">
          <mxGeometry x="570" y="40" width="40" height="50" as="geometry" />
        </mxCell>
        <mxCell id="UyxZlDRQQXkK28OBq-pB-54" style="edgeStyle=orthogonalEdgeStyle;rounded=0;orthogonalLoop=1;jettySize=auto;html=1;exitX=0.5;exitY=1;exitDx=0;exitDy=0;entryX=0.5;entryY=0;entryDx=0;entryDy=0;" edge="1" parent="1" source="UyxZlDRQQXkK28OBq-pB-40" target="UyxZlDRQQXkK28OBq-pB-43">
          <mxGeometry relative="1" as="geometry" />
        </mxCell>
        <mxCell id="UyxZlDRQQXkK28OBq-pB-40" value="INÍCIO&amp;nbsp;" style="ellipse;whiteSpace=wrap;html=1;fillColor=#e1d5e7;strokeColor=#9673a6;" vertex="1" parent="1">
          <mxGeometry x="870" y="120" width="120" height="80" as="geometry" />
        </mxCell>
        <mxCell id="UyxZlDRQQXkK28OBq-pB-41" value="ANÁLISE DE&amp;nbsp; VIABILIDADE&lt;div&gt;DO PRODUTO&lt;/div&gt;" style="text;strokeColor=none;fillColor=none;html=1;fontSize=24;fontStyle=1;verticalAlign=middle;align=center;fontFamily=Times New Roman;" vertex="1" parent="1">
          <mxGeometry x="910" y="50" width="40" height="50" as="geometry" />
        </mxCell>
        <mxCell id="UyxZlDRQQXkK28OBq-pB-43" value="APÓS O CADATRO DO LOTE/PRODUTO VERIFICAR INSUMOS" style="rounded=0;whiteSpace=wrap;html=1;fillColor=#ffe6cc;strokeColor=#d79b00;" vertex="1" parent="1">
          <mxGeometry x="870" y="240" width="120" height="60" as="geometry" />
        </mxCell>
        <mxCell id="UyxZlDRQQXkK28OBq-pB-72" style="edgeStyle=orthogonalEdgeStyle;rounded=0;orthogonalLoop=1;jettySize=auto;html=1;exitX=0.5;exitY=1;exitDx=0;exitDy=0;entryX=0.5;entryY=0;entryDx=0;entryDy=0;" edge="1" parent="1" source="UyxZlDRQQXkK28OBq-pB-44" target="UyxZlDRQQXkK28OBq-pB-47">
          <mxGeometry relative="1" as="geometry" />
        </mxCell>
        <mxCell id="UyxZlDRQQXkK28OBq-pB-44" value="SEGUIR VIABILIDADE" style="rounded=0;whiteSpace=wrap;html=1;fillColor=#ffe6cc;strokeColor=#d79b00;" vertex="1" parent="1">
          <mxGeometry x="870" y="450" width="120" height="60" as="geometry" />
        </mxCell>
        <mxCell id="UyxZlDRQQXkK28OBq-pB-56" style="edgeStyle=orthogonalEdgeStyle;rounded=0;orthogonalLoop=1;jettySize=auto;html=1;exitX=0.5;exitY=1;exitDx=0;exitDy=0;exitPerimeter=0;entryX=0.5;entryY=0;entryDx=0;entryDy=0;" edge="1" parent="1" source="UyxZlDRQQXkK28OBq-pB-45" target="UyxZlDRQQXkK28OBq-pB-44">
          <mxGeometry relative="1" as="geometry" />
        </mxCell>
        <mxCell id="UyxZlDRQQXkK28OBq-pB-71" value="SIM" style="edgeLabel;html=1;align=center;verticalAlign=middle;resizable=0;points=[];" vertex="1" connectable="0" parent="UyxZlDRQQXkK28OBq-pB-56">
          <mxGeometry x="-0.5059" y="1" relative="1" as="geometry">
            <mxPoint as="offset" />
          </mxGeometry>
        </mxCell>
        <mxCell id="UyxZlDRQQXkK28OBq-pB-62" style="edgeStyle=orthogonalEdgeStyle;rounded=0;orthogonalLoop=1;jettySize=auto;html=1;exitX=1;exitY=0.5;exitDx=0;exitDy=0;exitPerimeter=0;entryX=0;entryY=0.5;entryDx=0;entryDy=0;" edge="1" parent="1" source="UyxZlDRQQXkK28OBq-pB-45" target="UyxZlDRQQXkK28OBq-pB-51">
          <mxGeometry relative="1" as="geometry" />
        </mxCell>
        <mxCell id="UyxZlDRQQXkK28OBq-pB-67" value="" style="edgeStyle=orthogonalEdgeStyle;rounded=0;orthogonalLoop=1;jettySize=auto;html=1;" edge="1" parent="1" source="UyxZlDRQQXkK28OBq-pB-45" target="UyxZlDRQQXkK28OBq-pB-51">
          <mxGeometry relative="1" as="geometry" />
        </mxCell>
        <mxCell id="UyxZlDRQQXkK28OBq-pB-70" value="NÃO" style="edgeLabel;html=1;align=center;verticalAlign=middle;resizable=0;points=[];" vertex="1" connectable="0" parent="UyxZlDRQQXkK28OBq-pB-67">
          <mxGeometry x="-0.0265" y="4" relative="1" as="geometry">
            <mxPoint x="-1" as="offset" />
          </mxGeometry>
        </mxCell>
        <mxCell id="UyxZlDRQQXkK28OBq-pB-45" value="QUANTIDADE DE MATERIAIS&amp;nbsp;&lt;div&gt;CORRETO&lt;/div&gt;" style="strokeWidth=2;html=1;shape=mxgraph.flowchart.decision;whiteSpace=wrap;fillColor=#d5e8d4;strokeColor=#82b366;" vertex="1" parent="1">
          <mxGeometry x="850" y="320" width="160" height="100" as="geometry" />
        </mxCell>
        <mxCell id="UyxZlDRQQXkK28OBq-pB-47" value="CONTAGEM PEÇAS&amp;nbsp;" style="rounded=0;whiteSpace=wrap;html=1;fillColor=#ffe6cc;strokeColor=#d79b00;" vertex="1" parent="1">
          <mxGeometry x="870" y="540" width="120" height="60" as="geometry" />
        </mxCell>
        <mxCell id="UyxZlDRQQXkK28OBq-pB-59" style="edgeStyle=orthogonalEdgeStyle;rounded=0;orthogonalLoop=1;jettySize=auto;html=1;exitX=0.5;exitY=1;exitDx=0;exitDy=0;exitPerimeter=0;entryX=0.5;entryY=0;entryDx=0;entryDy=0;" edge="1" parent="1" source="UyxZlDRQQXkK28OBq-pB-48" target="UyxZlDRQQXkK28OBq-pB-49">
          <mxGeometry relative="1" as="geometry" />
        </mxCell>
        <mxCell id="UyxZlDRQQXkK28OBq-pB-65" value="SIM" style="edgeLabel;html=1;align=center;verticalAlign=middle;resizable=0;points=[];" vertex="1" connectable="0" parent="UyxZlDRQQXkK28OBq-pB-59">
          <mxGeometry x="-0.7235" y="-3" relative="1" as="geometry">
            <mxPoint as="offset" />
          </mxGeometry>
        </mxCell>
        <mxCell id="UyxZlDRQQXkK28OBq-pB-60" style="edgeStyle=orthogonalEdgeStyle;rounded=0;orthogonalLoop=1;jettySize=auto;html=1;exitX=1;exitY=0.5;exitDx=0;exitDy=0;exitPerimeter=0;entryX=0;entryY=0.5;entryDx=0;entryDy=0;" edge="1" parent="1" source="UyxZlDRQQXkK28OBq-pB-48" target="UyxZlDRQQXkK28OBq-pB-50">
          <mxGeometry relative="1" as="geometry" />
        </mxCell>
        <mxCell id="UyxZlDRQQXkK28OBq-pB-66" value="NÃO" style="edgeLabel;html=1;align=center;verticalAlign=middle;resizable=0;points=[];" vertex="1" connectable="0" parent="UyxZlDRQQXkK28OBq-pB-60">
          <mxGeometry x="-0.1549" y="4" relative="1" as="geometry">
            <mxPoint x="-1" as="offset" />
          </mxGeometry>
        </mxCell>
        <mxCell id="UyxZlDRQQXkK28OBq-pB-48" value="QUANTIDADE&lt;div&gt;&amp;nbsp;CORRETA&amp;nbsp;&lt;/div&gt;" style="strokeWidth=2;html=1;shape=mxgraph.flowchart.decision;whiteSpace=wrap;fillColor=#d5e8d4;strokeColor=#82b366;" vertex="1" parent="1">
          <mxGeometry x="850" y="620" width="160" height="100" as="geometry" />
        </mxCell>
        <mxCell id="UyxZlDRQQXkK28OBq-pB-64" style="edgeStyle=orthogonalEdgeStyle;rounded=0;orthogonalLoop=1;jettySize=auto;html=1;exitX=0.5;exitY=1;exitDx=0;exitDy=0;entryX=0.5;entryY=0;entryDx=0;entryDy=0;" edge="1" parent="1" source="UyxZlDRQQXkK28OBq-pB-49" target="UyxZlDRQQXkK28OBq-pB-63">
          <mxGeometry relative="1" as="geometry" />
        </mxCell>
        <mxCell id="UyxZlDRQQXkK28OBq-pB-49" value="SEGUIR C/ PRODUÇÃO&amp;nbsp;" style="rounded=0;whiteSpace=wrap;html=1;fillColor=#ffe6cc;strokeColor=#d79b00;" vertex="1" parent="1">
          <mxGeometry x="870" y="760" width="120" height="60" as="geometry" />
        </mxCell>
        <mxCell id="UyxZlDRQQXkK28OBq-pB-53" style="edgeStyle=orthogonalEdgeStyle;rounded=0;orthogonalLoop=1;jettySize=auto;html=1;exitX=1;exitY=0.5;exitDx=0;exitDy=0;entryX=0.5;entryY=1;entryDx=0;entryDy=0;" edge="1" parent="1" source="UyxZlDRQQXkK28OBq-pB-50" target="UyxZlDRQQXkK28OBq-pB-52">
          <mxGeometry relative="1" as="geometry" />
        </mxCell>
        <mxCell id="UyxZlDRQQXkK28OBq-pB-50" value="INDICADOR DE FALTA DE PEÇAS NA TELA" style="rounded=0;whiteSpace=wrap;html=1;fillColor=#ffe6cc;strokeColor=#d79b00;" vertex="1" parent="1">
          <mxGeometry x="1080" y="640" width="120" height="60" as="geometry" />
        </mxCell>
        <mxCell id="UyxZlDRQQXkK28OBq-pB-61" style="edgeStyle=orthogonalEdgeStyle;rounded=0;orthogonalLoop=1;jettySize=auto;html=1;exitX=1;exitY=0.5;exitDx=0;exitDy=0;" edge="1" parent="1" source="UyxZlDRQQXkK28OBq-pB-51" target="UyxZlDRQQXkK28OBq-pB-52">
          <mxGeometry relative="1" as="geometry" />
        </mxCell>
        <mxCell id="UyxZlDRQQXkK28OBq-pB-51" value="INDICADOR DE FALTA DE INSUMOS NA TELA" style="rounded=0;whiteSpace=wrap;html=1;fillColor=#ffe6cc;strokeColor=#d79b00;" vertex="1" parent="1">
          <mxGeometry x="1050" y="340" width="120" height="60" as="geometry" />
        </mxCell>
        <mxCell id="UyxZlDRQQXkK28OBq-pB-52" value="VERIFICAR C/ CLIENTE" style="rounded=0;whiteSpace=wrap;html=1;fillColor=#ffe6cc;strokeColor=#d79b00;" vertex="1" parent="1">
          <mxGeometry x="1200" y="340" width="120" height="60" as="geometry" />
        </mxCell>
        <mxCell id="UyxZlDRQQXkK28OBq-pB-55" style="edgeStyle=orthogonalEdgeStyle;rounded=0;orthogonalLoop=1;jettySize=auto;html=1;exitX=0.5;exitY=1;exitDx=0;exitDy=0;entryX=0.5;entryY=0;entryDx=0;entryDy=0;entryPerimeter=0;" edge="1" parent="1" source="UyxZlDRQQXkK28OBq-pB-43" target="UyxZlDRQQXkK28OBq-pB-45">
          <mxGeometry relative="1" as="geometry" />
        </mxCell>
        <mxCell id="UyxZlDRQQXkK28OBq-pB-58" style="edgeStyle=orthogonalEdgeStyle;rounded=0;orthogonalLoop=1;jettySize=auto;html=1;exitX=0.5;exitY=1;exitDx=0;exitDy=0;entryX=0.5;entryY=0;entryDx=0;entryDy=0;entryPerimeter=0;" edge="1" parent="1" source="UyxZlDRQQXkK28OBq-pB-47" target="UyxZlDRQQXkK28OBq-pB-48">
          <mxGeometry relative="1" as="geometry" />
        </mxCell>
        <mxCell id="UyxZlDRQQXkK28OBq-pB-63" value="FIM" style="ellipse;whiteSpace=wrap;html=1;fillColor=#e1d5e7;strokeColor=#9673a6;" vertex="1" parent="1">
          <mxGeometry x="870" y="840" width="120" height="80" as="geometry" />
        </mxCell>
        <mxCell id="UyxZlDRQQXkK28OBq-pB-75" value="CADASTRAR CLIENTE" style="text;strokeColor=none;fillColor=none;html=1;fontSize=24;fontStyle=1;verticalAlign=middle;align=center;fontFamily=Times New Roman;" vertex="1" parent="1">
          <mxGeometry x="1600" y="40" width="40" height="50" as="geometry" />
        </mxCell>
        <mxCell id="UyxZlDRQQXkK28OBq-pB-84" style="edgeStyle=orthogonalEdgeStyle;rounded=0;orthogonalLoop=1;jettySize=auto;html=1;exitX=0.5;exitY=1;exitDx=0;exitDy=0;entryX=0.5;entryY=0;entryDx=0;entryDy=0;" edge="1" parent="1" source="UyxZlDRQQXkK28OBq-pB-77" target="UyxZlDRQQXkK28OBq-pB-78">
          <mxGeometry relative="1" as="geometry" />
        </mxCell>
        <mxCell id="UyxZlDRQQXkK28OBq-pB-77" value="INÍCIO&amp;nbsp;" style="ellipse;whiteSpace=wrap;html=1;fillColor=#e1d5e7;strokeColor=#9673a6;" vertex="1" parent="1">
          <mxGeometry x="1560" y="120" width="120" height="80" as="geometry" />
        </mxCell>
        <mxCell id="UyxZlDRQQXkK28OBq-pB-85" style="edgeStyle=orthogonalEdgeStyle;rounded=0;orthogonalLoop=1;jettySize=auto;html=1;exitX=0.5;exitY=1;exitDx=0;exitDy=0;entryX=0.5;entryY=0;entryDx=0;entryDy=0;" edge="1" parent="1" source="UyxZlDRQQXkK28OBq-pB-78" target="UyxZlDRQQXkK28OBq-pB-79">
          <mxGeometry relative="1" as="geometry" />
        </mxCell>
        <mxCell id="UyxZlDRQQXkK28OBq-pB-78" value="CLICAR NA TELA CLIENTES" style="rounded=0;whiteSpace=wrap;html=1;fillColor=#ffe6cc;strokeColor=#d79b00;" vertex="1" parent="1">
          <mxGeometry x="1560" y="240" width="120" height="60" as="geometry" />
        </mxCell>
        <mxCell id="UyxZlDRQQXkK28OBq-pB-86" style="edgeStyle=orthogonalEdgeStyle;rounded=0;orthogonalLoop=1;jettySize=auto;html=1;exitX=0.5;exitY=1;exitDx=0;exitDy=0;entryX=0.5;entryY=0;entryDx=0;entryDy=0;" edge="1" parent="1" source="UyxZlDRQQXkK28OBq-pB-79" target="UyxZlDRQQXkK28OBq-pB-80">
          <mxGeometry relative="1" as="geometry" />
        </mxCell>
        <mxCell id="UyxZlDRQQXkK28OBq-pB-79" value="CLICAR EM CADASTRAR CLIENTES" style="rounded=0;whiteSpace=wrap;html=1;fillColor=#ffe6cc;strokeColor=#d79b00;" vertex="1" parent="1">
          <mxGeometry x="1560" y="320" width="120" height="60" as="geometry" />
        </mxCell>
        <mxCell id="UyxZlDRQQXkK28OBq-pB-87" style="edgeStyle=orthogonalEdgeStyle;rounded=0;orthogonalLoop=1;jettySize=auto;html=1;exitX=0.5;exitY=1;exitDx=0;exitDy=0;" edge="1" parent="1" source="UyxZlDRQQXkK28OBq-pB-80" target="UyxZlDRQQXkK28OBq-pB-81">
          <mxGeometry relative="1" as="geometry" />
        </mxCell>
        <mxCell id="UyxZlDRQQXkK28OBq-pB-80" value="PREENCHER AS INFORMAÇÕES NECESSÁRIAS" style="rounded=0;whiteSpace=wrap;html=1;fillColor=#ffe6cc;strokeColor=#d79b00;" vertex="1" parent="1">
          <mxGeometry x="1560" y="400" width="120" height="60" as="geometry" />
        </mxCell>
        <mxCell id="UyxZlDRQQXkK28OBq-pB-88" style="edgeStyle=orthogonalEdgeStyle;rounded=0;orthogonalLoop=1;jettySize=auto;html=1;exitX=0.5;exitY=1;exitDx=0;exitDy=0;exitPerimeter=0;entryX=0.5;entryY=0;entryDx=0;entryDy=0;" edge="1" parent="1" source="UyxZlDRQQXkK28OBq-pB-81" target="UyxZlDRQQXkK28OBq-pB-82">
          <mxGeometry relative="1" as="geometry" />
        </mxCell>
        <mxCell id="UyxZlDRQQXkK28OBq-pB-92" value="SIM" style="edgeLabel;html=1;align=center;verticalAlign=middle;resizable=0;points=[];" vertex="1" connectable="0" parent="UyxZlDRQQXkK28OBq-pB-88">
          <mxGeometry x="-0.5922" y="1" relative="1" as="geometry">
            <mxPoint as="offset" />
          </mxGeometry>
        </mxCell>
        <mxCell id="UyxZlDRQQXkK28OBq-pB-90" style="edgeStyle=orthogonalEdgeStyle;rounded=0;orthogonalLoop=1;jettySize=auto;html=1;exitX=1;exitY=0.5;exitDx=0;exitDy=0;exitPerimeter=0;entryX=1;entryY=0.5;entryDx=0;entryDy=0;" edge="1" parent="1" source="UyxZlDRQQXkK28OBq-pB-81" target="UyxZlDRQQXkK28OBq-pB-80">
          <mxGeometry relative="1" as="geometry" />
        </mxCell>
        <mxCell id="UyxZlDRQQXkK28OBq-pB-91" value="NÃO" style="edgeLabel;html=1;align=center;verticalAlign=middle;resizable=0;points=[];" vertex="1" connectable="0" parent="UyxZlDRQQXkK28OBq-pB-90">
          <mxGeometry x="-0.0985" relative="1" as="geometry">
            <mxPoint as="offset" />
          </mxGeometry>
        </mxCell>
        <mxCell id="UyxZlDRQQXkK28OBq-pB-81" value="AS INFORMAÇÕES&lt;div&gt;&amp;nbsp;SÃO VÁLIDAS&amp;nbsp;&lt;/div&gt;" style="strokeWidth=2;html=1;shape=mxgraph.flowchart.decision;whiteSpace=wrap;fillColor=#d5e8d4;strokeColor=#82b366;" vertex="1" parent="1">
          <mxGeometry x="1540" y="480" width="160" height="100" as="geometry" />
        </mxCell>
        <mxCell id="UyxZlDRQQXkK28OBq-pB-89" style="edgeStyle=orthogonalEdgeStyle;rounded=0;orthogonalLoop=1;jettySize=auto;html=1;exitX=0.5;exitY=1;exitDx=0;exitDy=0;entryX=0.5;entryY=0;entryDx=0;entryDy=0;" edge="1" parent="1" source="UyxZlDRQQXkK28OBq-pB-82" target="UyxZlDRQQXkK28OBq-pB-83">
          <mxGeometry relative="1" as="geometry" />
        </mxCell>
        <mxCell id="UyxZlDRQQXkK28OBq-pB-82" value="CONFIRMAR CADASTRO" style="rounded=0;whiteSpace=wrap;html=1;fillColor=#ffe6cc;strokeColor=#d79b00;" vertex="1" parent="1">
          <mxGeometry x="1560" y="630" width="120" height="60" as="geometry" />
        </mxCell>
        <mxCell id="UyxZlDRQQXkK28OBq-pB-83" value="FIM" style="ellipse;whiteSpace=wrap;html=1;fillColor=#e1d5e7;strokeColor=#9673a6;" vertex="1" parent="1">
          <mxGeometry x="1560" y="720" width="120" height="80" as="geometry" />
        </mxCell>
        <mxCell id="UyxZlDRQQXkK28OBq-pB-93" style="edgeStyle=orthogonalEdgeStyle;rounded=0;orthogonalLoop=1;jettySize=auto;html=1;exitX=0.5;exitY=1;exitDx=0;exitDy=0;entryX=0.5;entryY=0;entryDx=0;entryDy=0;" edge="1" parent="1" source="UyxZlDRQQXkK28OBq-pB-94" target="UyxZlDRQQXkK28OBq-pB-96">
          <mxGeometry relative="1" as="geometry" />
        </mxCell>
        <mxCell id="UyxZlDRQQXkK28OBq-pB-94" value="INÍCIO&amp;nbsp;" style="ellipse;whiteSpace=wrap;html=1;fillColor=#e1d5e7;strokeColor=#9673a6;" vertex="1" parent="1">
          <mxGeometry x="1997" y="120" width="120" height="80" as="geometry" />
        </mxCell>
        <mxCell id="UyxZlDRQQXkK28OBq-pB-95" style="edgeStyle=orthogonalEdgeStyle;rounded=0;orthogonalLoop=1;jettySize=auto;html=1;exitX=0.5;exitY=1;exitDx=0;exitDy=0;entryX=0.5;entryY=0;entryDx=0;entryDy=0;" edge="1" parent="1" source="UyxZlDRQQXkK28OBq-pB-96" target="UyxZlDRQQXkK28OBq-pB-98">
          <mxGeometry relative="1" as="geometry" />
        </mxCell>
        <mxCell id="UyxZlDRQQXkK28OBq-pB-96" value="NA TELA INICIAL IR PARA PRODUTO" style="rounded=0;whiteSpace=wrap;html=1;fillColor=#ffe6cc;strokeColor=#d79b00;" vertex="1" parent="1">
          <mxGeometry x="1997" y="240" width="120" height="60" as="geometry" />
        </mxCell>
        <mxCell id="UyxZlDRQQXkK28OBq-pB-97" style="edgeStyle=orthogonalEdgeStyle;rounded=0;orthogonalLoop=1;jettySize=auto;html=1;exitX=0.5;exitY=1;exitDx=0;exitDy=0;entryX=0.5;entryY=0;entryDx=0;entryDy=0;" edge="1" parent="1" source="UyxZlDRQQXkK28OBq-pB-98" target="UyxZlDRQQXkK28OBq-pB-100">
          <mxGeometry relative="1" as="geometry" />
        </mxCell>
        <mxCell id="UyxZlDRQQXkK28OBq-pB-98" value="OPÇÃO CADASTRAR PRODUTOD" style="rounded=0;whiteSpace=wrap;html=1;fillColor=#ffe6cc;strokeColor=#d79b00;" vertex="1" parent="1">
          <mxGeometry x="1997" y="320" width="120" height="60" as="geometry" />
        </mxCell>
        <mxCell id="UyxZlDRQQXkK28OBq-pB-99" style="edgeStyle=orthogonalEdgeStyle;rounded=0;orthogonalLoop=1;jettySize=auto;html=1;exitX=0.5;exitY=1;exitDx=0;exitDy=0;" edge="1" parent="1" source="UyxZlDRQQXkK28OBq-pB-100" target="UyxZlDRQQXkK28OBq-pB-105">
          <mxGeometry relative="1" as="geometry" />
        </mxCell>
        <mxCell id="UyxZlDRQQXkK28OBq-pB-100" value="DIGITAR INFOS DOS PRODUTOS" style="rounded=0;whiteSpace=wrap;html=1;fillColor=#ffe6cc;strokeColor=#d79b00;" vertex="1" parent="1">
          <mxGeometry x="1997" y="400" width="120" height="60" as="geometry" />
        </mxCell>
        <mxCell id="UyxZlDRQQXkK28OBq-pB-101" style="edgeStyle=orthogonalEdgeStyle;rounded=0;orthogonalLoop=1;jettySize=auto;html=1;exitX=0.5;exitY=1;exitDx=0;exitDy=0;exitPerimeter=0;entryX=0.5;entryY=0;entryDx=0;entryDy=0;" edge="1" parent="1" source="UyxZlDRQQXkK28OBq-pB-105" target="UyxZlDRQQXkK28OBq-pB-107">
          <mxGeometry relative="1" as="geometry" />
        </mxCell>
        <mxCell id="UyxZlDRQQXkK28OBq-pB-102" value="SIM" style="edgeLabel;html=1;align=center;verticalAlign=middle;resizable=0;points=[];" vertex="1" connectable="0" parent="UyxZlDRQQXkK28OBq-pB-101">
          <mxGeometry x="-0.5922" y="1" relative="1" as="geometry">
            <mxPoint as="offset" />
          </mxGeometry>
        </mxCell>
        <mxCell id="UyxZlDRQQXkK28OBq-pB-103" style="edgeStyle=orthogonalEdgeStyle;rounded=0;orthogonalLoop=1;jettySize=auto;html=1;exitX=1;exitY=0.5;exitDx=0;exitDy=0;exitPerimeter=0;entryX=1;entryY=0.5;entryDx=0;entryDy=0;" edge="1" parent="1" source="UyxZlDRQQXkK28OBq-pB-105" target="UyxZlDRQQXkK28OBq-pB-100">
          <mxGeometry relative="1" as="geometry" />
        </mxCell>
        <mxCell id="UyxZlDRQQXkK28OBq-pB-104" value="NÃO" style="edgeLabel;html=1;align=center;verticalAlign=middle;resizable=0;points=[];" vertex="1" connectable="0" parent="UyxZlDRQQXkK28OBq-pB-103">
          <mxGeometry x="-0.0985" relative="1" as="geometry">
            <mxPoint as="offset" />
          </mxGeometry>
        </mxCell>
        <mxCell id="UyxZlDRQQXkK28OBq-pB-105" value="AS INFORMAÇÕES&lt;div&gt;&amp;nbsp;SÃO VÁLIDAS&amp;nbsp;&lt;/div&gt;" style="strokeWidth=2;html=1;shape=mxgraph.flowchart.decision;whiteSpace=wrap;fillColor=#d5e8d4;strokeColor=#82b366;" vertex="1" parent="1">
          <mxGeometry x="1977" y="480" width="160" height="100" as="geometry" />
        </mxCell>
        <mxCell id="UyxZlDRQQXkK28OBq-pB-106" style="edgeStyle=orthogonalEdgeStyle;rounded=0;orthogonalLoop=1;jettySize=auto;html=1;exitX=0.5;exitY=1;exitDx=0;exitDy=0;entryX=0.5;entryY=0;entryDx=0;entryDy=0;" edge="1" parent="1" source="UyxZlDRQQXkK28OBq-pB-107" target="UyxZlDRQQXkK28OBq-pB-108">
          <mxGeometry relative="1" as="geometry" />
        </mxCell>
        <mxCell id="UyxZlDRQQXkK28OBq-pB-107" value="CLICAR EM SALVAR&amp;nbsp;" style="rounded=0;whiteSpace=wrap;html=1;fillColor=#ffe6cc;strokeColor=#d79b00;" vertex="1" parent="1">
          <mxGeometry x="1997" y="630" width="120" height="60" as="geometry" />
        </mxCell>
        <mxCell id="UyxZlDRQQXkK28OBq-pB-108" value="FIM" style="ellipse;whiteSpace=wrap;html=1;fillColor=#e1d5e7;strokeColor=#9673a6;" vertex="1" parent="1">
          <mxGeometry x="1997" y="720" width="120" height="80" as="geometry" />
        </mxCell>
        <mxCell id="UyxZlDRQQXkK28OBq-pB-109" value="CADASTRAR PRODUTO" style="text;strokeColor=none;fillColor=none;html=1;fontSize=24;fontStyle=1;verticalAlign=middle;align=center;fontFamily=Times New Roman;" vertex="1" parent="1">
          <mxGeometry x="2037" y="40" width="40" height="50" as="geometry" />
        </mxCell>
        <mxCell id="UyxZlDRQQXkK28OBq-pB-110" value="CONCLUSÃO DO PEDIDO" style="text;strokeColor=none;fillColor=none;html=1;fontSize=24;fontStyle=1;verticalAlign=middle;align=center;fontFamily=Times New Roman;" vertex="1" parent="1">
          <mxGeometry x="2470" y="40" width="40" height="50" as="geometry" />
        </mxCell>
        <mxCell id="UyxZlDRQQXkK28OBq-pB-120" style="edgeStyle=orthogonalEdgeStyle;rounded=0;orthogonalLoop=1;jettySize=auto;html=1;exitX=0.5;exitY=1;exitDx=0;exitDy=0;entryX=0.5;entryY=0;entryDx=0;entryDy=0;" edge="1" parent="1" source="UyxZlDRQQXkK28OBq-pB-111" target="UyxZlDRQQXkK28OBq-pB-112">
          <mxGeometry relative="1" as="geometry" />
        </mxCell>
        <mxCell id="UyxZlDRQQXkK28OBq-pB-111" value="INÍCIO&amp;nbsp;" style="ellipse;whiteSpace=wrap;html=1;fillColor=#e1d5e7;strokeColor=#9673a6;" vertex="1" parent="1">
          <mxGeometry x="2420" y="120" width="120" height="80" as="geometry" />
        </mxCell>
        <mxCell id="UyxZlDRQQXkK28OBq-pB-121" style="edgeStyle=orthogonalEdgeStyle;rounded=0;orthogonalLoop=1;jettySize=auto;html=1;exitX=0.5;exitY=1;exitDx=0;exitDy=0;entryX=0.5;entryY=0;entryDx=0;entryDy=0;" edge="1" parent="1" source="UyxZlDRQQXkK28OBq-pB-112" target="UyxZlDRQQXkK28OBq-pB-114">
          <mxGeometry relative="1" as="geometry" />
        </mxCell>
        <mxCell id="UyxZlDRQQXkK28OBq-pB-112" value="CLICAR NA TELA CHECKLIST" style="rounded=0;whiteSpace=wrap;html=1;fillColor=#ffe6cc;strokeColor=#d79b00;" vertex="1" parent="1">
          <mxGeometry x="2420" y="240" width="120" height="60" as="geometry" />
        </mxCell>
        <mxCell id="UyxZlDRQQXkK28OBq-pB-114" value="PESQUISAR O PEDIDO" style="rounded=0;whiteSpace=wrap;html=1;fillColor=#ffe6cc;strokeColor=#d79b00;" vertex="1" parent="1">
          <mxGeometry x="2420" y="340" width="120" height="60" as="geometry" />
        </mxCell>
        <mxCell id="UyxZlDRQQXkK28OBq-pB-125" style="edgeStyle=orthogonalEdgeStyle;rounded=0;orthogonalLoop=1;jettySize=auto;html=1;exitX=0.5;exitY=1;exitDx=0;exitDy=0;entryX=0.5;entryY=0;entryDx=0;entryDy=0;" edge="1" parent="1" source="UyxZlDRQQXkK28OBq-pB-115" target="UyxZlDRQQXkK28OBq-pB-116">
          <mxGeometry relative="1" as="geometry" />
        </mxCell>
        <mxCell id="UyxZlDRQQXkK28OBq-pB-115" value="FAZER UM CHECK NO PRODUTO/LOTE&amp;nbsp;" style="rounded=0;whiteSpace=wrap;html=1;fillColor=#ffe6cc;strokeColor=#d79b00;" vertex="1" parent="1">
          <mxGeometry x="2420" y="555" width="120" height="60" as="geometry" />
        </mxCell>
        <mxCell id="UyxZlDRQQXkK28OBq-pB-126" style="edgeStyle=orthogonalEdgeStyle;rounded=0;orthogonalLoop=1;jettySize=auto;html=1;exitX=0.5;exitY=1;exitDx=0;exitDy=0;entryX=0.5;entryY=0;entryDx=0;entryDy=0;" edge="1" parent="1" source="UyxZlDRQQXkK28OBq-pB-116" target="UyxZlDRQQXkK28OBq-pB-119">
          <mxGeometry relative="1" as="geometry" />
        </mxCell>
        <mxCell id="UyxZlDRQQXkK28OBq-pB-116" value="PEDIDO CONCLUÍDO" style="rounded=0;whiteSpace=wrap;html=1;fillColor=#ffe6cc;strokeColor=#d79b00;" vertex="1" parent="1">
          <mxGeometry x="2420" y="640" width="120" height="60" as="geometry" />
        </mxCell>
        <mxCell id="UyxZlDRQQXkK28OBq-pB-123" style="edgeStyle=orthogonalEdgeStyle;rounded=0;orthogonalLoop=1;jettySize=auto;html=1;exitX=1;exitY=0.5;exitDx=0;exitDy=0;exitPerimeter=0;" edge="1" parent="1" source="UyxZlDRQQXkK28OBq-pB-117" target="UyxZlDRQQXkK28OBq-pB-118">
          <mxGeometry relative="1" as="geometry" />
        </mxCell>
        <mxCell id="UyxZlDRQQXkK28OBq-pB-128" value="NÃO" style="edgeLabel;html=1;align=center;verticalAlign=middle;resizable=0;points=[];" vertex="1" connectable="0" parent="UyxZlDRQQXkK28OBq-pB-123">
          <mxGeometry x="-0.35" y="4" relative="1" as="geometry">
            <mxPoint as="offset" />
          </mxGeometry>
        </mxCell>
        <mxCell id="UyxZlDRQQXkK28OBq-pB-124" style="edgeStyle=orthogonalEdgeStyle;rounded=0;orthogonalLoop=1;jettySize=auto;html=1;exitX=0.5;exitY=1;exitDx=0;exitDy=0;exitPerimeter=0;entryX=0.5;entryY=0;entryDx=0;entryDy=0;" edge="1" parent="1" source="UyxZlDRQQXkK28OBq-pB-117" target="UyxZlDRQQXkK28OBq-pB-115">
          <mxGeometry relative="1" as="geometry" />
        </mxCell>
        <mxCell id="UyxZlDRQQXkK28OBq-pB-129" value="SIM" style="edgeLabel;html=1;align=center;verticalAlign=middle;resizable=0;points=[];" vertex="1" connectable="0" parent="UyxZlDRQQXkK28OBq-pB-124">
          <mxGeometry x="-0.2471" y="-2" relative="1" as="geometry">
            <mxPoint as="offset" />
          </mxGeometry>
        </mxCell>
        <mxCell id="UyxZlDRQQXkK28OBq-pB-117" value="O PEDIDO EXISTE" style="strokeWidth=2;html=1;shape=mxgraph.flowchart.decision;whiteSpace=wrap;fillColor=#d5e8d4;strokeColor=#82b366;" vertex="1" parent="1">
          <mxGeometry x="2400" y="420" width="160" height="100" as="geometry" />
        </mxCell>
        <mxCell id="UyxZlDRQQXkK28OBq-pB-151" style="edgeStyle=orthogonalEdgeStyle;rounded=0;orthogonalLoop=1;jettySize=auto;html=1;exitX=0.5;exitY=1;exitDx=0;exitDy=0;entryX=1;entryY=0.5;entryDx=0;entryDy=0;" edge="1" parent="1" source="UyxZlDRQQXkK28OBq-pB-118" target="UyxZlDRQQXkK28OBq-pB-119">
          <mxGeometry relative="1" as="geometry" />
        </mxCell>
        <mxCell id="UyxZlDRQQXkK28OBq-pB-118" value="SOLICITAR CADASTRO DO CLIENTE / PRODUTO" style="rounded=0;whiteSpace=wrap;html=1;fillColor=#ffe6cc;strokeColor=#d79b00;" vertex="1" parent="1">
          <mxGeometry x="2600" y="440" width="120" height="60" as="geometry" />
        </mxCell>
        <mxCell id="UyxZlDRQQXkK28OBq-pB-119" value="FIM" style="ellipse;whiteSpace=wrap;html=1;fillColor=#e1d5e7;strokeColor=#9673a6;" vertex="1" parent="1">
          <mxGeometry x="2420" y="730" width="120" height="80" as="geometry" />
        </mxCell>
        <mxCell id="UyxZlDRQQXkK28OBq-pB-122" style="edgeStyle=orthogonalEdgeStyle;rounded=0;orthogonalLoop=1;jettySize=auto;html=1;exitX=0.5;exitY=1;exitDx=0;exitDy=0;entryX=0.5;entryY=0;entryDx=0;entryDy=0;entryPerimeter=0;" edge="1" parent="1" source="UyxZlDRQQXkK28OBq-pB-114" target="UyxZlDRQQXkK28OBq-pB-117">
          <mxGeometry relative="1" as="geometry" />
        </mxCell>
        <mxCell id="UyxZlDRQQXkK28OBq-pB-130" value="ATUALIZAR CLIENTE" style="text;strokeColor=none;fillColor=none;html=1;fontSize=24;fontStyle=1;verticalAlign=middle;align=center;fontFamily=Times New Roman;" vertex="1" parent="1">
          <mxGeometry x="3020" y="40" width="40" height="50" as="geometry" />
        </mxCell>
        <mxCell id="UyxZlDRQQXkK28OBq-pB-141" style="edgeStyle=orthogonalEdgeStyle;rounded=0;orthogonalLoop=1;jettySize=auto;html=1;exitX=0.5;exitY=1;exitDx=0;exitDy=0;entryX=0.5;entryY=0;entryDx=0;entryDy=0;" edge="1" parent="1" source="UyxZlDRQQXkK28OBq-pB-132" target="UyxZlDRQQXkK28OBq-pB-133">
          <mxGeometry relative="1" as="geometry" />
        </mxCell>
        <mxCell id="UyxZlDRQQXkK28OBq-pB-132" value="INÍCIO&amp;nbsp;" style="ellipse;whiteSpace=wrap;html=1;fillColor=#e1d5e7;strokeColor=#9673a6;" vertex="1" parent="1">
          <mxGeometry x="2990" y="120" width="120" height="80" as="geometry" />
        </mxCell>
        <mxCell id="UyxZlDRQQXkK28OBq-pB-142" style="edgeStyle=orthogonalEdgeStyle;rounded=0;orthogonalLoop=1;jettySize=auto;html=1;exitX=0.5;exitY=1;exitDx=0;exitDy=0;entryX=0.5;entryY=0;entryDx=0;entryDy=0;" edge="1" parent="1" source="UyxZlDRQQXkK28OBq-pB-133" target="UyxZlDRQQXkK28OBq-pB-134">
          <mxGeometry relative="1" as="geometry" />
        </mxCell>
        <mxCell id="UyxZlDRQQXkK28OBq-pB-133" value="CLICAR EM CLIENTES&lt;span style=&quot;color: rgba(0, 0, 0, 0); font-family: monospace; font-size: 0px; text-align: start; text-wrap: nowrap;&quot;&gt;%3CmxGraphModel%3E%3Croot%3E%3CmxCell%20id%3D%220%22%2F%3E%3CmxCell%20id%3D%221%22%20parent%3D%220%22%2F%3E%3CmxCell%20id%3D%222%22%20value%3D%22CLICAR%20NA%20TELA%20CHECKLIST%22%20style%3D%22rounded%3D0%3BwhiteSpace%3Dwrap%3Bhtml%3D1%3BfillColor%3D%23ffe6cc%3BstrokeColor%3D%23d79b00%3B%22%20vertex%3D%221%22%20parent%3D%221%22%3E%3CmxGeometry%20x%3D%222420%22%20y%3D%22240%22%20width%3D%22120%22%20height%3D%2260%22%20as%3D%22geometry%22%2F%3E%3C%2FmxCell%3E%3C%2Froot%3E%3C%2FmxGraphModel%3E&lt;/span&gt;" style="rounded=0;whiteSpace=wrap;html=1;fillColor=#ffe6cc;strokeColor=#d79b00;" vertex="1" parent="1">
          <mxGeometry x="2990" y="230" width="120" height="60" as="geometry" />
        </mxCell>
        <mxCell id="UyxZlDRQQXkK28OBq-pB-143" style="edgeStyle=orthogonalEdgeStyle;rounded=0;orthogonalLoop=1;jettySize=auto;html=1;exitX=0.5;exitY=1;exitDx=0;exitDy=0;entryX=0.5;entryY=0;entryDx=0;entryDy=0;" edge="1" parent="1" source="UyxZlDRQQXkK28OBq-pB-134" target="UyxZlDRQQXkK28OBq-pB-135">
          <mxGeometry relative="1" as="geometry" />
        </mxCell>
        <mxCell id="UyxZlDRQQXkK28OBq-pB-134" value="ESCOLHER CLIENTE" style="rounded=0;whiteSpace=wrap;html=1;fillColor=#ffe6cc;strokeColor=#d79b00;" vertex="1" parent="1">
          <mxGeometry x="2990" y="320" width="120" height="60" as="geometry" />
        </mxCell>
        <mxCell id="UyxZlDRQQXkK28OBq-pB-144" style="edgeStyle=orthogonalEdgeStyle;rounded=0;orthogonalLoop=1;jettySize=auto;html=1;exitX=0.5;exitY=1;exitDx=0;exitDy=0;" edge="1" parent="1" source="UyxZlDRQQXkK28OBq-pB-135" target="UyxZlDRQQXkK28OBq-pB-136">
          <mxGeometry relative="1" as="geometry" />
        </mxCell>
        <mxCell id="UyxZlDRQQXkK28OBq-pB-135" value="EDITAR CLIENTE" style="rounded=0;whiteSpace=wrap;html=1;fillColor=#ffe6cc;strokeColor=#d79b00;" vertex="1" parent="1">
          <mxGeometry x="2990" y="400" width="120" height="60" as="geometry" />
        </mxCell>
        <mxCell id="UyxZlDRQQXkK28OBq-pB-145" style="edgeStyle=orthogonalEdgeStyle;rounded=0;orthogonalLoop=1;jettySize=auto;html=1;exitX=0.5;exitY=1;exitDx=0;exitDy=0;" edge="1" parent="1" source="UyxZlDRQQXkK28OBq-pB-136" target="UyxZlDRQQXkK28OBq-pB-138">
          <mxGeometry relative="1" as="geometry" />
        </mxCell>
        <mxCell id="UyxZlDRQQXkK28OBq-pB-136" value="EDITAR INFORMAÇÕES" style="rounded=0;whiteSpace=wrap;html=1;fillColor=#ffe6cc;strokeColor=#d79b00;" vertex="1" parent="1">
          <mxGeometry x="2990" y="480" width="120" height="60" as="geometry" />
        </mxCell>
        <mxCell id="UyxZlDRQQXkK28OBq-pB-172" style="edgeStyle=orthogonalEdgeStyle;rounded=0;orthogonalLoop=1;jettySize=auto;html=1;exitX=0.5;exitY=1;exitDx=0;exitDy=0;entryX=0.5;entryY=0;entryDx=0;entryDy=0;" edge="1" parent="1" source="UyxZlDRQQXkK28OBq-pB-137" target="UyxZlDRQQXkK28OBq-pB-140">
          <mxGeometry relative="1" as="geometry" />
        </mxCell>
        <mxCell id="UyxZlDRQQXkK28OBq-pB-137" value="ATUALIZAR CLIENTE&amp;nbsp;" style="rounded=0;whiteSpace=wrap;html=1;fillColor=#ffe6cc;strokeColor=#d79b00;" vertex="1" parent="1">
          <mxGeometry x="2990" y="710" width="120" height="60" as="geometry" />
        </mxCell>
        <mxCell id="UyxZlDRQQXkK28OBq-pB-146" style="edgeStyle=orthogonalEdgeStyle;rounded=0;orthogonalLoop=1;jettySize=auto;html=1;exitX=0.5;exitY=1;exitDx=0;exitDy=0;exitPerimeter=0;" edge="1" parent="1" source="UyxZlDRQQXkK28OBq-pB-138" target="UyxZlDRQQXkK28OBq-pB-137">
          <mxGeometry relative="1" as="geometry" />
        </mxCell>
        <mxCell id="UyxZlDRQQXkK28OBq-pB-148" value="SIM" style="edgeLabel;html=1;align=center;verticalAlign=middle;resizable=0;points=[];" vertex="1" connectable="0" parent="UyxZlDRQQXkK28OBq-pB-146">
          <mxGeometry x="-0.4294" y="3" relative="1" as="geometry">
            <mxPoint as="offset" />
          </mxGeometry>
        </mxCell>
        <mxCell id="UyxZlDRQQXkK28OBq-pB-147" style="edgeStyle=orthogonalEdgeStyle;rounded=0;orthogonalLoop=1;jettySize=auto;html=1;exitX=1;exitY=0.5;exitDx=0;exitDy=0;exitPerimeter=0;entryX=1;entryY=0.5;entryDx=0;entryDy=0;" edge="1" parent="1" source="UyxZlDRQQXkK28OBq-pB-138" target="UyxZlDRQQXkK28OBq-pB-135">
          <mxGeometry relative="1" as="geometry" />
        </mxCell>
        <mxCell id="UyxZlDRQQXkK28OBq-pB-149" value="NÃO" style="edgeLabel;html=1;align=center;verticalAlign=middle;resizable=0;points=[];" vertex="1" connectable="0" parent="UyxZlDRQQXkK28OBq-pB-147">
          <mxGeometry x="-0.1171" y="4" relative="1" as="geometry">
            <mxPoint as="offset" />
          </mxGeometry>
        </mxCell>
        <mxCell id="UyxZlDRQQXkK28OBq-pB-138" value="AS INFORMAÇÕES EDITADAS&amp;nbsp;&lt;span style=&quot;background-color: initial;&quot;&gt;SÃO&lt;/span&gt;&lt;div&gt;&lt;div&gt;&amp;nbsp;VÁLIDOS&lt;/div&gt;&lt;/div&gt;" style="strokeWidth=2;html=1;shape=mxgraph.flowchart.decision;whiteSpace=wrap;fillColor=#d5e8d4;strokeColor=#82b366;" vertex="1" parent="1">
          <mxGeometry x="2970" y="570" width="160" height="100" as="geometry" />
        </mxCell>
        <mxCell id="UyxZlDRQQXkK28OBq-pB-140" value="FIM" style="ellipse;whiteSpace=wrap;html=1;fillColor=#e1d5e7;strokeColor=#9673a6;" vertex="1" parent="1">
          <mxGeometry x="2990" y="800" width="120" height="80" as="geometry" />
        </mxCell>
        <mxCell id="UyxZlDRQQXkK28OBq-pB-154" style="edgeStyle=orthogonalEdgeStyle;rounded=0;orthogonalLoop=1;jettySize=auto;html=1;exitX=0.5;exitY=1;exitDx=0;exitDy=0;entryX=0.5;entryY=0;entryDx=0;entryDy=0;" edge="1" parent="1" source="UyxZlDRQQXkK28OBq-pB-155" target="UyxZlDRQQXkK28OBq-pB-157">
          <mxGeometry relative="1" as="geometry" />
        </mxCell>
        <mxCell id="UyxZlDRQQXkK28OBq-pB-155" value="CLICAR EM PRODUTOS&lt;span style=&quot;color: rgba(0, 0, 0, 0); font-family: monospace; font-size: 0px; text-align: start; text-wrap: nowrap;&quot;&gt;%3CmxGraphModel%3E%3Croot%3E%3CmxCell%20id%3D%220%22%2F%3E%3CmxCell%20id%3D%221%22%20parent%3D%220%22%2F%3E%3CmxCell%20id%3D%222%22%20value%3D%22CLICAR%20NA%20TELA%20CHECKLIST%22%20style%3D%22rounded%3D0%3BwhiteSpace%3Dwrap%3Bhtml%3D1%3BfillColor%3D%23ffe6cc%3BstrokeColor%3D%23d79b00%3B%22%20vertex%3D%221%22%20parent%3D%221%22%3E%3CmxGeometry%20x%3D%222420%22%20y%3D%22240%22%20width%3D%22120%22%20height%3D%2260%22%20as%3D%22geometry%22%2F%3E%3C%2FmxCell%3E%3C%2Froot%3E%3C%2FmxGraphModel%3E&lt;/span&gt;" style="rounded=0;whiteSpace=wrap;html=1;fillColor=#ffe6cc;strokeColor=#d79b00;" vertex="1" parent="1">
          <mxGeometry x="3360" y="230" width="120" height="60" as="geometry" />
        </mxCell>
        <mxCell id="UyxZlDRQQXkK28OBq-pB-156" style="edgeStyle=orthogonalEdgeStyle;rounded=0;orthogonalLoop=1;jettySize=auto;html=1;exitX=0.5;exitY=1;exitDx=0;exitDy=0;entryX=0.5;entryY=0;entryDx=0;entryDy=0;" edge="1" parent="1" source="UyxZlDRQQXkK28OBq-pB-157" target="UyxZlDRQQXkK28OBq-pB-159">
          <mxGeometry relative="1" as="geometry" />
        </mxCell>
        <mxCell id="UyxZlDRQQXkK28OBq-pB-157" value="ESCOLHER PRODUTO" style="rounded=0;whiteSpace=wrap;html=1;fillColor=#ffe6cc;strokeColor=#d79b00;" vertex="1" parent="1">
          <mxGeometry x="3360" y="320" width="120" height="60" as="geometry" />
        </mxCell>
        <mxCell id="UyxZlDRQQXkK28OBq-pB-158" style="edgeStyle=orthogonalEdgeStyle;rounded=0;orthogonalLoop=1;jettySize=auto;html=1;exitX=0.5;exitY=1;exitDx=0;exitDy=0;" edge="1" parent="1" source="UyxZlDRQQXkK28OBq-pB-159" target="UyxZlDRQQXkK28OBq-pB-161">
          <mxGeometry relative="1" as="geometry" />
        </mxCell>
        <mxCell id="UyxZlDRQQXkK28OBq-pB-159" value="EDITAR PRODUTO" style="rounded=0;whiteSpace=wrap;html=1;fillColor=#ffe6cc;strokeColor=#d79b00;" vertex="1" parent="1">
          <mxGeometry x="3360" y="400" width="120" height="60" as="geometry" />
        </mxCell>
        <mxCell id="UyxZlDRQQXkK28OBq-pB-160" style="edgeStyle=orthogonalEdgeStyle;rounded=0;orthogonalLoop=1;jettySize=auto;html=1;exitX=0.5;exitY=1;exitDx=0;exitDy=0;" edge="1" parent="1" source="UyxZlDRQQXkK28OBq-pB-161" target="UyxZlDRQQXkK28OBq-pB-167">
          <mxGeometry relative="1" as="geometry" />
        </mxCell>
        <mxCell id="UyxZlDRQQXkK28OBq-pB-161" value="EDITAR INFORMAÇÕES" style="rounded=0;whiteSpace=wrap;html=1;fillColor=#ffe6cc;strokeColor=#d79b00;" vertex="1" parent="1">
          <mxGeometry x="3360" y="480" width="120" height="60" as="geometry" />
        </mxCell>
        <mxCell id="UyxZlDRQQXkK28OBq-pB-173" style="edgeStyle=orthogonalEdgeStyle;rounded=0;orthogonalLoop=1;jettySize=auto;html=1;exitX=0.5;exitY=1;exitDx=0;exitDy=0;" edge="1" parent="1" source="UyxZlDRQQXkK28OBq-pB-162" target="UyxZlDRQQXkK28OBq-pB-168">
          <mxGeometry relative="1" as="geometry" />
        </mxCell>
        <mxCell id="UyxZlDRQQXkK28OBq-pB-162" value="ATUALIZAR PRODUTO" style="rounded=0;whiteSpace=wrap;html=1;fillColor=#ffe6cc;strokeColor=#d79b00;" vertex="1" parent="1">
          <mxGeometry x="3360" y="710" width="120" height="60" as="geometry" />
        </mxCell>
        <mxCell id="UyxZlDRQQXkK28OBq-pB-163" style="edgeStyle=orthogonalEdgeStyle;rounded=0;orthogonalLoop=1;jettySize=auto;html=1;exitX=0.5;exitY=1;exitDx=0;exitDy=0;exitPerimeter=0;" edge="1" parent="1" source="UyxZlDRQQXkK28OBq-pB-167" target="UyxZlDRQQXkK28OBq-pB-162">
          <mxGeometry relative="1" as="geometry" />
        </mxCell>
        <mxCell id="UyxZlDRQQXkK28OBq-pB-164" value="SIM" style="edgeLabel;html=1;align=center;verticalAlign=middle;resizable=0;points=[];" vertex="1" connectable="0" parent="UyxZlDRQQXkK28OBq-pB-163">
          <mxGeometry x="-0.4294" y="3" relative="1" as="geometry">
            <mxPoint as="offset" />
          </mxGeometry>
        </mxCell>
        <mxCell id="UyxZlDRQQXkK28OBq-pB-165" style="edgeStyle=orthogonalEdgeStyle;rounded=0;orthogonalLoop=1;jettySize=auto;html=1;exitX=1;exitY=0.5;exitDx=0;exitDy=0;exitPerimeter=0;entryX=1;entryY=0.5;entryDx=0;entryDy=0;" edge="1" parent="1" source="UyxZlDRQQXkK28OBq-pB-167" target="UyxZlDRQQXkK28OBq-pB-159">
          <mxGeometry relative="1" as="geometry" />
        </mxCell>
        <mxCell id="UyxZlDRQQXkK28OBq-pB-166" value="NÃO" style="edgeLabel;html=1;align=center;verticalAlign=middle;resizable=0;points=[];" vertex="1" connectable="0" parent="UyxZlDRQQXkK28OBq-pB-165">
          <mxGeometry x="-0.1171" y="4" relative="1" as="geometry">
            <mxPoint as="offset" />
          </mxGeometry>
        </mxCell>
        <mxCell id="UyxZlDRQQXkK28OBq-pB-167" value="AS INFORMAÇÕES EDITADAS&amp;nbsp;&lt;span style=&quot;background-color: initial;&quot;&gt;SÃO&lt;/span&gt;&lt;div&gt;&lt;div&gt;&amp;nbsp;VÁLIDOS&lt;/div&gt;&lt;/div&gt;" style="strokeWidth=2;html=1;shape=mxgraph.flowchart.decision;whiteSpace=wrap;fillColor=#d5e8d4;strokeColor=#82b366;" vertex="1" parent="1">
          <mxGeometry x="3340" y="570" width="160" height="100" as="geometry" />
        </mxCell>
        <mxCell id="UyxZlDRQQXkK28OBq-pB-168" value="FIM&amp;nbsp;" style="ellipse;whiteSpace=wrap;html=1;fillColor=#e1d5e7;strokeColor=#9673a6;" vertex="1" parent="1">
          <mxGeometry x="3360" y="800" width="120" height="80" as="geometry" />
        </mxCell>
        <mxCell id="UyxZlDRQQXkK28OBq-pB-170" style="edgeStyle=orthogonalEdgeStyle;rounded=0;orthogonalLoop=1;jettySize=auto;html=1;exitX=0.5;exitY=1;exitDx=0;exitDy=0;entryX=0.5;entryY=0;entryDx=0;entryDy=0;" edge="1" parent="1" source="UyxZlDRQQXkK28OBq-pB-169" target="UyxZlDRQQXkK28OBq-pB-155">
          <mxGeometry relative="1" as="geometry" />
        </mxCell>
        <mxCell id="UyxZlDRQQXkK28OBq-pB-169" value="INÍCIO&amp;nbsp;" style="ellipse;whiteSpace=wrap;html=1;fillColor=#e1d5e7;strokeColor=#9673a6;" vertex="1" parent="1">
          <mxGeometry x="3360" y="120" width="120" height="80" as="geometry" />
        </mxCell>
        <mxCell id="UyxZlDRQQXkK28OBq-pB-171" value="ATUALIZAR PRODUTO" style="text;strokeColor=none;fillColor=none;html=1;fontSize=24;fontStyle=1;verticalAlign=middle;align=center;fontFamily=Times New Roman;" vertex="1" parent="1">
          <mxGeometry x="3400" y="40" width="40" height="50" as="geometry" />
        </mxCell>
        <mxCell id="UyxZlDRQQXkK28OBq-pB-174" value="VERIFICAR TEMPO DE&lt;div&gt;&amp;nbsp;PRODUÇÃO E MÉDIA DIÁRIA&lt;/div&gt;" style="text;strokeColor=none;fillColor=none;html=1;fontSize=24;fontStyle=1;verticalAlign=middle;align=center;fontFamily=Times New Roman;" vertex="1" parent="1">
          <mxGeometry x="3930" y="40" width="40" height="50" as="geometry" />
        </mxCell>
        <mxCell id="UyxZlDRQQXkK28OBq-pB-192" style="edgeStyle=orthogonalEdgeStyle;rounded=0;orthogonalLoop=1;jettySize=auto;html=1;exitX=0.5;exitY=1;exitDx=0;exitDy=0;" edge="1" parent="1" source="UyxZlDRQQXkK28OBq-pB-175" target="UyxZlDRQQXkK28OBq-pB-176">
          <mxGeometry relative="1" as="geometry" />
        </mxCell>
        <mxCell id="UyxZlDRQQXkK28OBq-pB-175" value="INÍCIO&amp;nbsp;" style="ellipse;whiteSpace=wrap;html=1;fillColor=#e1d5e7;strokeColor=#9673a6;" vertex="1" parent="1">
          <mxGeometry x="3880" y="120" width="120" height="80" as="geometry" />
        </mxCell>
        <mxCell id="UyxZlDRQQXkK28OBq-pB-193" style="edgeStyle=orthogonalEdgeStyle;rounded=0;orthogonalLoop=1;jettySize=auto;html=1;exitX=0.5;exitY=1;exitDx=0;exitDy=0;" edge="1" parent="1" source="UyxZlDRQQXkK28OBq-pB-176" target="UyxZlDRQQXkK28OBq-pB-177">
          <mxGeometry relative="1" as="geometry" />
        </mxCell>
        <mxCell id="UyxZlDRQQXkK28OBq-pB-176" value="IR PARA TELA TEMPO DE PRODUÇÃO&amp;nbsp;" style="rounded=0;whiteSpace=wrap;html=1;fillColor=#ffe6cc;strokeColor=#d79b00;" vertex="1" parent="1">
          <mxGeometry x="3880" y="220" width="120" height="60" as="geometry" />
        </mxCell>
        <mxCell id="UyxZlDRQQXkK28OBq-pB-177" value="PESQUISAR NA BARRA DE PESQUISA CLIENTE" style="rounded=0;whiteSpace=wrap;html=1;fillColor=#ffe6cc;strokeColor=#d79b00;" vertex="1" parent="1">
          <mxGeometry x="3880" y="320" width="120" height="60" as="geometry" />
        </mxCell>
        <mxCell id="UyxZlDRQQXkK28OBq-pB-178" value="DIGITAR A MÉDIA DIÁRIA E TEMPO" style="rounded=0;whiteSpace=wrap;html=1;fillColor=#ffe6cc;strokeColor=#d79b00;" vertex="1" parent="1">
          <mxGeometry x="3880" y="540" width="120" height="60" as="geometry" />
        </mxCell>
        <mxCell id="UyxZlDRQQXkK28OBq-pB-195" style="edgeStyle=orthogonalEdgeStyle;rounded=0;orthogonalLoop=1;jettySize=auto;html=1;exitX=0.5;exitY=1;exitDx=0;exitDy=0;exitPerimeter=0;entryX=0.5;entryY=0;entryDx=0;entryDy=0;" edge="1" parent="1" source="UyxZlDRQQXkK28OBq-pB-179" target="UyxZlDRQQXkK28OBq-pB-178">
          <mxGeometry relative="1" as="geometry" />
        </mxCell>
        <mxCell id="UyxZlDRQQXkK28OBq-pB-202" value="SIM" style="edgeLabel;html=1;align=center;verticalAlign=middle;resizable=0;points=[];" vertex="1" connectable="0" parent="UyxZlDRQQXkK28OBq-pB-195">
          <mxGeometry x="-0.4" y="-1" relative="1" as="geometry">
            <mxPoint as="offset" />
          </mxGeometry>
        </mxCell>
        <mxCell id="UyxZlDRQQXkK28OBq-pB-197" style="edgeStyle=orthogonalEdgeStyle;rounded=0;orthogonalLoop=1;jettySize=auto;html=1;exitX=1;exitY=0.5;exitDx=0;exitDy=0;exitPerimeter=0;" edge="1" parent="1" source="UyxZlDRQQXkK28OBq-pB-179">
          <mxGeometry relative="1" as="geometry">
            <mxPoint x="4080" y="449.6470588235295" as="targetPoint" />
          </mxGeometry>
        </mxCell>
        <mxCell id="UyxZlDRQQXkK28OBq-pB-201" value="NÃO" style="edgeLabel;html=1;align=center;verticalAlign=middle;resizable=0;points=[];" vertex="1" connectable="0" parent="UyxZlDRQQXkK28OBq-pB-197">
          <mxGeometry x="0.0039" y="-3" relative="1" as="geometry">
            <mxPoint x="-1" as="offset" />
          </mxGeometry>
        </mxCell>
        <mxCell id="UyxZlDRQQXkK28OBq-pB-179" value="FOI ENCONTRADO&amp;nbsp;" style="strokeWidth=2;html=1;shape=mxgraph.flowchart.decision;whiteSpace=wrap;fillColor=#d5e8d4;strokeColor=#82b366;" vertex="1" parent="1">
          <mxGeometry x="3860" y="400" width="160" height="100" as="geometry" />
        </mxCell>
        <mxCell id="UyxZlDRQQXkK28OBq-pB-184" style="edgeStyle=orthogonalEdgeStyle;rounded=0;orthogonalLoop=1;jettySize=auto;html=1;exitX=1;exitY=0.5;exitDx=0;exitDy=0;exitPerimeter=0;entryX=0;entryY=0.5;entryDx=0;entryDy=0;" edge="1" parent="1" source="UyxZlDRQQXkK28OBq-pB-180" target="UyxZlDRQQXkK28OBq-pB-182">
          <mxGeometry relative="1" as="geometry" />
        </mxCell>
        <mxCell id="UyxZlDRQQXkK28OBq-pB-204" value="NÃO" style="edgeLabel;html=1;align=center;verticalAlign=middle;resizable=0;points=[];" vertex="1" connectable="0" parent="UyxZlDRQQXkK28OBq-pB-184">
          <mxGeometry x="-0.1976" y="3" relative="1" as="geometry">
            <mxPoint as="offset" />
          </mxGeometry>
        </mxCell>
        <mxCell id="UyxZlDRQQXkK28OBq-pB-186" style="edgeStyle=orthogonalEdgeStyle;rounded=0;orthogonalLoop=1;jettySize=auto;html=1;exitX=0.5;exitY=1;exitDx=0;exitDy=0;exitPerimeter=0;" edge="1" parent="1" source="UyxZlDRQQXkK28OBq-pB-180" target="UyxZlDRQQXkK28OBq-pB-181">
          <mxGeometry relative="1" as="geometry" />
        </mxCell>
        <mxCell id="UyxZlDRQQXkK28OBq-pB-203" value="SIM" style="edgeLabel;html=1;align=center;verticalAlign=middle;resizable=0;points=[];" vertex="1" connectable="0" parent="UyxZlDRQQXkK28OBq-pB-186">
          <mxGeometry x="-0.3318" relative="1" as="geometry">
            <mxPoint as="offset" />
          </mxGeometry>
        </mxCell>
        <mxCell id="UyxZlDRQQXkK28OBq-pB-180" value="BATEU META" style="strokeWidth=2;html=1;shape=mxgraph.flowchart.decision;whiteSpace=wrap;fillColor=#d5e8d4;strokeColor=#82b366;" vertex="1" parent="1">
          <mxGeometry x="3860" y="620" width="160" height="100" as="geometry" />
        </mxCell>
        <mxCell id="UyxZlDRQQXkK28OBq-pB-191" style="edgeStyle=orthogonalEdgeStyle;rounded=0;orthogonalLoop=1;jettySize=auto;html=1;exitX=0.5;exitY=1;exitDx=0;exitDy=0;entryX=0.5;entryY=0;entryDx=0;entryDy=0;" edge="1" parent="1" source="UyxZlDRQQXkK28OBq-pB-181" target="UyxZlDRQQXkK28OBq-pB-187">
          <mxGeometry relative="1" as="geometry" />
        </mxCell>
        <mxCell id="UyxZlDRQQXkK28OBq-pB-181" value="MOSTRAR NA TELA &quot;META BATIDA&quot;" style="rounded=0;whiteSpace=wrap;html=1;fillColor=#ffe6cc;strokeColor=#d79b00;" vertex="1" parent="1">
          <mxGeometry x="3880" y="770" width="120" height="60" as="geometry" />
        </mxCell>
        <mxCell id="UyxZlDRQQXkK28OBq-pB-185" style="edgeStyle=orthogonalEdgeStyle;rounded=0;orthogonalLoop=1;jettySize=auto;html=1;exitX=1;exitY=0.5;exitDx=0;exitDy=0;" edge="1" parent="1" source="UyxZlDRQQXkK28OBq-pB-182" target="UyxZlDRQQXkK28OBq-pB-183">
          <mxGeometry relative="1" as="geometry" />
        </mxCell>
        <mxCell id="UyxZlDRQQXkK28OBq-pB-182" value="MOSTRAR NA TELA QUANTIDADE DE PRODUTOS FALTANTES" style="rounded=0;whiteSpace=wrap;html=1;fillColor=#ffe6cc;strokeColor=#d79b00;" vertex="1" parent="1">
          <mxGeometry x="4070" y="640" width="120" height="60" as="geometry" />
        </mxCell>
        <mxCell id="UyxZlDRQQXkK28OBq-pB-200" style="edgeStyle=orthogonalEdgeStyle;rounded=0;orthogonalLoop=1;jettySize=auto;html=1;exitX=0.5;exitY=1;exitDx=0;exitDy=0;entryX=1;entryY=0.5;entryDx=0;entryDy=0;" edge="1" parent="1" source="UyxZlDRQQXkK28OBq-pB-183" target="UyxZlDRQQXkK28OBq-pB-188">
          <mxGeometry relative="1" as="geometry" />
        </mxCell>
        <mxCell id="UyxZlDRQQXkK28OBq-pB-183" value="NA PRÓXIMA SEÇÃO INDICAR&amp;nbsp; NA TELA A FALTA DE DEMANDA&amp;nbsp;" style="rounded=0;whiteSpace=wrap;html=1;fillColor=#ffe6cc;strokeColor=#d79b00;" vertex="1" parent="1">
          <mxGeometry x="4280" y="640" width="120" height="60" as="geometry" />
        </mxCell>
        <mxCell id="UyxZlDRQQXkK28OBq-pB-189" style="edgeStyle=orthogonalEdgeStyle;rounded=0;orthogonalLoop=1;jettySize=auto;html=1;exitX=0.5;exitY=1;exitDx=0;exitDy=0;" edge="1" parent="1" source="UyxZlDRQQXkK28OBq-pB-187" target="UyxZlDRQQXkK28OBq-pB-188">
          <mxGeometry relative="1" as="geometry" />
        </mxCell>
        <mxCell id="UyxZlDRQQXkK28OBq-pB-187" value="SALVAR PROGRESSO" style="rounded=0;whiteSpace=wrap;html=1;fillColor=#ffe6cc;strokeColor=#d79b00;" vertex="1" parent="1">
          <mxGeometry x="3880" y="860" width="120" height="60" as="geometry" />
        </mxCell>
        <mxCell id="UyxZlDRQQXkK28OBq-pB-188" value="FINAL" style="ellipse;whiteSpace=wrap;html=1;fillColor=#e1d5e7;strokeColor=#9673a6;" vertex="1" parent="1">
          <mxGeometry x="3880" y="960" width="120" height="80" as="geometry" />
        </mxCell>
        <mxCell id="UyxZlDRQQXkK28OBq-pB-194" style="edgeStyle=orthogonalEdgeStyle;rounded=0;orthogonalLoop=1;jettySize=auto;html=1;exitX=0.5;exitY=1;exitDx=0;exitDy=0;entryX=0.5;entryY=0;entryDx=0;entryDy=0;entryPerimeter=0;" edge="1" parent="1" source="UyxZlDRQQXkK28OBq-pB-177" target="UyxZlDRQQXkK28OBq-pB-179">
          <mxGeometry relative="1" as="geometry" />
        </mxCell>
        <mxCell id="UyxZlDRQQXkK28OBq-pB-196" style="edgeStyle=orthogonalEdgeStyle;rounded=0;orthogonalLoop=1;jettySize=auto;html=1;exitX=0.5;exitY=1;exitDx=0;exitDy=0;entryX=0.5;entryY=0;entryDx=0;entryDy=0;entryPerimeter=0;" edge="1" parent="1" source="UyxZlDRQQXkK28OBq-pB-178" target="UyxZlDRQQXkK28OBq-pB-180">
          <mxGeometry relative="1" as="geometry" />
        </mxCell>
        <mxCell id="UyxZlDRQQXkK28OBq-pB-199" style="edgeStyle=orthogonalEdgeStyle;rounded=0;orthogonalLoop=1;jettySize=auto;html=1;exitX=1;exitY=0.5;exitDx=0;exitDy=0;entryX=1;entryY=0.5;entryDx=0;entryDy=0;" edge="1" parent="1" source="UyxZlDRQQXkK28OBq-pB-198" target="UyxZlDRQQXkK28OBq-pB-188">
          <mxGeometry relative="1" as="geometry">
            <Array as="points">
              <mxPoint x="4500" y="450" />
              <mxPoint x="4500" y="1000" />
            </Array>
          </mxGeometry>
        </mxCell>
        <mxCell id="UyxZlDRQQXkK28OBq-pB-198" value="IR PARA TELA CADASTRA CLIENTE" style="rounded=0;whiteSpace=wrap;html=1;fillColor=#ffe6cc;strokeColor=#d79b00;" vertex="1" parent="1">
          <mxGeometry x="4080" y="420" width="120" height="60" as="geometry" />
        </mxCell>
        <mxCell id="UyxZlDRQQXkK28OBq-pB-212" style="edgeStyle=orthogonalEdgeStyle;rounded=0;orthogonalLoop=1;jettySize=auto;html=1;exitX=0.5;exitY=1;exitDx=0;exitDy=0;entryX=0.5;entryY=0;entryDx=0;entryDy=0;" edge="1" parent="1" source="UyxZlDRQQXkK28OBq-pB-205" target="UyxZlDRQQXkK28OBq-pB-206">
          <mxGeometry relative="1" as="geometry" />
        </mxCell>
        <mxCell id="UyxZlDRQQXkK28OBq-pB-205" value="INÍCIO&amp;nbsp;" style="ellipse;whiteSpace=wrap;html=1;fillColor=#e1d5e7;strokeColor=#9673a6;" vertex="1" parent="1">
          <mxGeometry x="4770" y="120" width="120" height="80" as="geometry" />
        </mxCell>
        <mxCell id="UyxZlDRQQXkK28OBq-pB-213" style="edgeStyle=orthogonalEdgeStyle;rounded=0;orthogonalLoop=1;jettySize=auto;html=1;exitX=0.5;exitY=1;exitDx=0;exitDy=0;entryX=0.5;entryY=0;entryDx=0;entryDy=0;" edge="1" parent="1" source="UyxZlDRQQXkK28OBq-pB-206" target="UyxZlDRQQXkK28OBq-pB-207">
          <mxGeometry relative="1" as="geometry" />
        </mxCell>
        <mxCell id="UyxZlDRQQXkK28OBq-pB-206" value="ABRIR TELA CLIENTE" style="rounded=0;whiteSpace=wrap;html=1;fillColor=#ffe6cc;strokeColor=#d79b00;" vertex="1" parent="1">
          <mxGeometry x="4770" y="250" width="120" height="60" as="geometry" />
        </mxCell>
        <mxCell id="UyxZlDRQQXkK28OBq-pB-214" style="edgeStyle=orthogonalEdgeStyle;rounded=0;orthogonalLoop=1;jettySize=auto;html=1;exitX=0.5;exitY=1;exitDx=0;exitDy=0;" edge="1" parent="1" source="UyxZlDRQQXkK28OBq-pB-207" target="UyxZlDRQQXkK28OBq-pB-208">
          <mxGeometry relative="1" as="geometry" />
        </mxCell>
        <mxCell id="UyxZlDRQQXkK28OBq-pB-207" value="VISUALIZAR LISTA DE CLIENTES" style="rounded=0;whiteSpace=wrap;html=1;fillColor=#ffe6cc;strokeColor=#d79b00;" vertex="1" parent="1">
          <mxGeometry x="4770" y="340" width="120" height="60" as="geometry" />
        </mxCell>
        <mxCell id="UyxZlDRQQXkK28OBq-pB-215" style="edgeStyle=orthogonalEdgeStyle;rounded=0;orthogonalLoop=1;jettySize=auto;html=1;exitX=0.5;exitY=1;exitDx=0;exitDy=0;" edge="1" parent="1" source="UyxZlDRQQXkK28OBq-pB-208" target="UyxZlDRQQXkK28OBq-pB-209">
          <mxGeometry relative="1" as="geometry" />
        </mxCell>
        <mxCell id="UyxZlDRQQXkK28OBq-pB-208" value="PESQUISAR CLIENTE QUE DESEJA&amp;nbsp;" style="rounded=0;whiteSpace=wrap;html=1;fillColor=#ffe6cc;strokeColor=#d79b00;" vertex="1" parent="1">
          <mxGeometry x="4770" y="430" width="120" height="60" as="geometry" />
        </mxCell>
        <mxCell id="UyxZlDRQQXkK28OBq-pB-216" style="edgeStyle=orthogonalEdgeStyle;rounded=0;orthogonalLoop=1;jettySize=auto;html=1;exitX=1;exitY=0.5;exitDx=0;exitDy=0;exitPerimeter=0;" edge="1" parent="1" source="UyxZlDRQQXkK28OBq-pB-209" target="UyxZlDRQQXkK28OBq-pB-210">
          <mxGeometry relative="1" as="geometry" />
        </mxCell>
        <mxCell id="UyxZlDRQQXkK28OBq-pB-219" value="NÃO" style="edgeLabel;html=1;align=center;verticalAlign=middle;resizable=0;points=[];" vertex="1" connectable="0" parent="UyxZlDRQQXkK28OBq-pB-216">
          <mxGeometry x="-0.1549" y="-1" relative="1" as="geometry">
            <mxPoint x="-1" as="offset" />
          </mxGeometry>
        </mxCell>
        <mxCell id="UyxZlDRQQXkK28OBq-pB-217" style="edgeStyle=orthogonalEdgeStyle;rounded=0;orthogonalLoop=1;jettySize=auto;html=1;exitX=0.5;exitY=1;exitDx=0;exitDy=0;exitPerimeter=0;entryX=0.5;entryY=0;entryDx=0;entryDy=0;" edge="1" parent="1" source="UyxZlDRQQXkK28OBq-pB-209" target="UyxZlDRQQXkK28OBq-pB-211">
          <mxGeometry relative="1" as="geometry" />
        </mxCell>
        <mxCell id="UyxZlDRQQXkK28OBq-pB-218" value="SIM" style="edgeLabel;html=1;align=center;verticalAlign=middle;resizable=0;points=[];" vertex="1" connectable="0" parent="UyxZlDRQQXkK28OBq-pB-217">
          <mxGeometry x="-0.4729" y="-5" relative="1" as="geometry">
            <mxPoint as="offset" />
          </mxGeometry>
        </mxCell>
        <mxCell id="UyxZlDRQQXkK28OBq-pB-209" value="FOI ENCONTRADO&amp;nbsp;" style="strokeWidth=2;html=1;shape=mxgraph.flowchart.decision;whiteSpace=wrap;fillColor=#d5e8d4;strokeColor=#82b366;" vertex="1" parent="1">
          <mxGeometry x="4750" y="520" width="160" height="100" as="geometry" />
        </mxCell>
        <mxCell id="UyxZlDRQQXkK28OBq-pB-222" style="edgeStyle=orthogonalEdgeStyle;rounded=0;orthogonalLoop=1;jettySize=auto;html=1;exitX=0.5;exitY=1;exitDx=0;exitDy=0;entryX=1;entryY=0.5;entryDx=0;entryDy=0;" edge="1" parent="1" source="UyxZlDRQQXkK28OBq-pB-210" target="UyxZlDRQQXkK28OBq-pB-220">
          <mxGeometry relative="1" as="geometry" />
        </mxCell>
        <mxCell id="UyxZlDRQQXkK28OBq-pB-210" value="IR PARA TELA CADASTRAR CLIENTE" style="rounded=0;whiteSpace=wrap;html=1;fillColor=#ffe6cc;strokeColor=#d79b00;" vertex="1" parent="1">
          <mxGeometry x="4970" y="540" width="120" height="60" as="geometry" />
        </mxCell>
        <mxCell id="UyxZlDRQQXkK28OBq-pB-221" style="edgeStyle=orthogonalEdgeStyle;rounded=0;orthogonalLoop=1;jettySize=auto;html=1;exitX=0.5;exitY=1;exitDx=0;exitDy=0;entryX=0.5;entryY=0;entryDx=0;entryDy=0;" edge="1" parent="1" source="UyxZlDRQQXkK28OBq-pB-211" target="UyxZlDRQQXkK28OBq-pB-220">
          <mxGeometry relative="1" as="geometry" />
        </mxCell>
        <mxCell id="UyxZlDRQQXkK28OBq-pB-211" value="ABRIR O CADASTRO DO CLIENTE QUE DESEJA" style="rounded=0;whiteSpace=wrap;html=1;fillColor=#ffe6cc;strokeColor=#d79b00;" vertex="1" parent="1">
          <mxGeometry x="4770" y="670" width="120" height="60" as="geometry" />
        </mxCell>
        <mxCell id="UyxZlDRQQXkK28OBq-pB-220" value="FIM" style="ellipse;whiteSpace=wrap;html=1;fillColor=#e1d5e7;strokeColor=#9673a6;" vertex="1" parent="1">
          <mxGeometry x="4770" y="790" width="120" height="80" as="geometry" />
        </mxCell>
        <mxCell id="UyxZlDRQQXkK28OBq-pB-223" style="edgeStyle=orthogonalEdgeStyle;rounded=0;orthogonalLoop=1;jettySize=auto;html=1;exitX=0.5;exitY=1;exitDx=0;exitDy=0;entryX=0.5;entryY=0;entryDx=0;entryDy=0;" edge="1" parent="1" source="UyxZlDRQQXkK28OBq-pB-224" target="UyxZlDRQQXkK28OBq-pB-226">
          <mxGeometry relative="1" as="geometry" />
        </mxCell>
        <mxCell id="UyxZlDRQQXkK28OBq-pB-224" value="INÍCIO&amp;nbsp;" style="ellipse;whiteSpace=wrap;html=1;fillColor=#e1d5e7;strokeColor=#9673a6;" vertex="1" parent="1">
          <mxGeometry x="5200" y="120" width="120" height="80" as="geometry" />
        </mxCell>
        <mxCell id="UyxZlDRQQXkK28OBq-pB-225" style="edgeStyle=orthogonalEdgeStyle;rounded=0;orthogonalLoop=1;jettySize=auto;html=1;exitX=0.5;exitY=1;exitDx=0;exitDy=0;entryX=0.5;entryY=0;entryDx=0;entryDy=0;" edge="1" parent="1" source="UyxZlDRQQXkK28OBq-pB-226" target="UyxZlDRQQXkK28OBq-pB-228">
          <mxGeometry relative="1" as="geometry" />
        </mxCell>
        <mxCell id="UyxZlDRQQXkK28OBq-pB-226" value="ABRIR TELA PRODUTO" style="rounded=0;whiteSpace=wrap;html=1;fillColor=#ffe6cc;strokeColor=#d79b00;" vertex="1" parent="1">
          <mxGeometry x="5200" y="250" width="120" height="60" as="geometry" />
        </mxCell>
        <mxCell id="UyxZlDRQQXkK28OBq-pB-227" style="edgeStyle=orthogonalEdgeStyle;rounded=0;orthogonalLoop=1;jettySize=auto;html=1;exitX=0.5;exitY=1;exitDx=0;exitDy=0;" edge="1" parent="1" source="UyxZlDRQQXkK28OBq-pB-228" target="UyxZlDRQQXkK28OBq-pB-230">
          <mxGeometry relative="1" as="geometry" />
        </mxCell>
        <mxCell id="UyxZlDRQQXkK28OBq-pB-228" value="VISUALIZAR LISTA DE PRODUTOS" style="rounded=0;whiteSpace=wrap;html=1;fillColor=#ffe6cc;strokeColor=#d79b00;" vertex="1" parent="1">
          <mxGeometry x="5200" y="340" width="120" height="60" as="geometry" />
        </mxCell>
        <mxCell id="UyxZlDRQQXkK28OBq-pB-229" style="edgeStyle=orthogonalEdgeStyle;rounded=0;orthogonalLoop=1;jettySize=auto;html=1;exitX=0.5;exitY=1;exitDx=0;exitDy=0;" edge="1" parent="1" source="UyxZlDRQQXkK28OBq-pB-230" target="UyxZlDRQQXkK28OBq-pB-235">
          <mxGeometry relative="1" as="geometry" />
        </mxCell>
        <mxCell id="UyxZlDRQQXkK28OBq-pB-230" value="PESQUISAR PRODUTO QUE DESEJA&amp;nbsp;" style="rounded=0;whiteSpace=wrap;html=1;fillColor=#ffe6cc;strokeColor=#d79b00;" vertex="1" parent="1">
          <mxGeometry x="5200" y="430" width="120" height="60" as="geometry" />
        </mxCell>
        <mxCell id="UyxZlDRQQXkK28OBq-pB-231" style="edgeStyle=orthogonalEdgeStyle;rounded=0;orthogonalLoop=1;jettySize=auto;html=1;exitX=1;exitY=0.5;exitDx=0;exitDy=0;exitPerimeter=0;" edge="1" parent="1" source="UyxZlDRQQXkK28OBq-pB-235" target="UyxZlDRQQXkK28OBq-pB-237">
          <mxGeometry relative="1" as="geometry" />
        </mxCell>
        <mxCell id="UyxZlDRQQXkK28OBq-pB-232" value="NÃO" style="edgeLabel;html=1;align=center;verticalAlign=middle;resizable=0;points=[];" vertex="1" connectable="0" parent="UyxZlDRQQXkK28OBq-pB-231">
          <mxGeometry x="-0.1549" y="-1" relative="1" as="geometry">
            <mxPoint x="-1" as="offset" />
          </mxGeometry>
        </mxCell>
        <mxCell id="UyxZlDRQQXkK28OBq-pB-233" style="edgeStyle=orthogonalEdgeStyle;rounded=0;orthogonalLoop=1;jettySize=auto;html=1;exitX=0.5;exitY=1;exitDx=0;exitDy=0;exitPerimeter=0;entryX=0.5;entryY=0;entryDx=0;entryDy=0;" edge="1" parent="1" source="UyxZlDRQQXkK28OBq-pB-235" target="UyxZlDRQQXkK28OBq-pB-239">
          <mxGeometry relative="1" as="geometry" />
        </mxCell>
        <mxCell id="UyxZlDRQQXkK28OBq-pB-234" value="SIM" style="edgeLabel;html=1;align=center;verticalAlign=middle;resizable=0;points=[];" vertex="1" connectable="0" parent="UyxZlDRQQXkK28OBq-pB-233">
          <mxGeometry x="-0.4729" y="-5" relative="1" as="geometry">
            <mxPoint as="offset" />
          </mxGeometry>
        </mxCell>
        <mxCell id="UyxZlDRQQXkK28OBq-pB-235" value="FOI ENCONTRADO&amp;nbsp;" style="strokeWidth=2;html=1;shape=mxgraph.flowchart.decision;whiteSpace=wrap;fillColor=#d5e8d4;strokeColor=#82b366;" vertex="1" parent="1">
          <mxGeometry x="5180" y="520" width="160" height="100" as="geometry" />
        </mxCell>
        <mxCell id="UyxZlDRQQXkK28OBq-pB-236" style="edgeStyle=orthogonalEdgeStyle;rounded=0;orthogonalLoop=1;jettySize=auto;html=1;exitX=0.5;exitY=1;exitDx=0;exitDy=0;entryX=1;entryY=0.5;entryDx=0;entryDy=0;" edge="1" parent="1" source="UyxZlDRQQXkK28OBq-pB-237" target="UyxZlDRQQXkK28OBq-pB-240">
          <mxGeometry relative="1" as="geometry" />
        </mxCell>
        <mxCell id="UyxZlDRQQXkK28OBq-pB-237" value="IR PARA TELA CADASTRAR PRODUTO" style="rounded=0;whiteSpace=wrap;html=1;fillColor=#ffe6cc;strokeColor=#d79b00;" vertex="1" parent="1">
          <mxGeometry x="5400" y="540" width="120" height="60" as="geometry" />
        </mxCell>
        <mxCell id="UyxZlDRQQXkK28OBq-pB-238" style="edgeStyle=orthogonalEdgeStyle;rounded=0;orthogonalLoop=1;jettySize=auto;html=1;exitX=0.5;exitY=1;exitDx=0;exitDy=0;entryX=0.5;entryY=0;entryDx=0;entryDy=0;" edge="1" parent="1" source="UyxZlDRQQXkK28OBq-pB-239" target="UyxZlDRQQXkK28OBq-pB-240">
          <mxGeometry relative="1" as="geometry" />
        </mxCell>
        <mxCell id="UyxZlDRQQXkK28OBq-pB-239" value="ABRIR O CADASTRO DO PRODUTO QUE DESEJA" style="rounded=0;whiteSpace=wrap;html=1;fillColor=#ffe6cc;strokeColor=#d79b00;" vertex="1" parent="1">
          <mxGeometry x="5200" y="670" width="120" height="60" as="geometry" />
        </mxCell>
        <mxCell id="UyxZlDRQQXkK28OBq-pB-240" value="FIM" style="ellipse;whiteSpace=wrap;html=1;fillColor=#e1d5e7;strokeColor=#9673a6;" vertex="1" parent="1">
          <mxGeometry x="5200" y="790" width="120" height="80" as="geometry" />
        </mxCell>
        <mxCell id="UyxZlDRQQXkK28OBq-pB-241" value="LEITURA CADASTRO&lt;div&gt;&amp;nbsp;CLIENTES&lt;/div&gt;" style="text;strokeColor=none;fillColor=none;html=1;fontSize=24;fontStyle=1;verticalAlign=middle;align=center;fontFamily=Times New Roman;" vertex="1" parent="1">
          <mxGeometry x="4810" y="50" width="40" height="50" as="geometry" />
        </mxCell>
        <mxCell id="UyxZlDRQQXkK28OBq-pB-242" value="LEITURA CADASTRO&lt;div&gt;&amp;nbsp;PRODUTOS&lt;/div&gt;" style="text;strokeColor=none;fillColor=none;html=1;fontSize=24;fontStyle=1;verticalAlign=middle;align=center;fontFamily=Times New Roman;" vertex="1" parent="1">
          <mxGeometry x="5230" y="50" width="40" height="50" as="geometry" />
        </mxCell>
      </root>
    </mxGraphModel>
  </diagram>
</mxfile>
